<svg width="70" height="69" viewBox="0 0 70 69" fill="none" xmlns="http://www.w3.org/2000/svg">
<path d="M35.1046 68.9028C54.0859 68.9028 69.4734 53.4784 69.4734 34.4514C69.4734 15.4244 54.0859 0 35.1046 0C16.1232 0 0.735718 15.4244 0.735718 34.4514C0.735718 53.4784 16.1232 68.9028 35.1046 68.9028Z" fill="url(#paint0_linear_15_498)"/>
<path d="M35.1632 41.5471C39.2369 41.5471 42.5437 38.2312 42.5361 34.1538L42.5154 23.0638C42.5078 18.9661 39.2053 15.6317 35.1536 15.6317C35.0237 15.6325 34.8942 15.648 34.7678 15.6779C32.8719 15.7699 31.0852 16.588 29.7775 17.9627C28.4697 19.3375 27.741 21.1638 27.742 23.0638L27.7627 34.1538C27.7703 38.2312 31.0894 41.5471 35.1632 41.5471Z" fill="white"/>
<path d="M33.3301 48.8129L33.3372 52.6371H37.0305L37.0234 48.8129C44.2958 47.898 49.9369 41.6821 49.9228 34.1538H46.2295C46.2409 40.2699 41.2807 45.2438 35.1701 45.2438C29.0594 45.2438 24.0807 40.2699 24.0693 34.1538H20.376C20.39 41.6802 26.0543 47.898 33.3301 48.8129Z" fill="white"/>
<defs>
<linearGradient id="paint0_linear_15_498" x1="35.1046" y1="0" x2="35.1046" y2="68.9028" gradientUnits="userSpaceOnUse">
<stop stop-color="#4CD5FA"/>
<stop offset="1" stop-color="#51A4F0"/>
</linearGradient>
</defs>
</svg>
