<svg width="380" height="330" viewBox="0 0 380 330" fill="none" xmlns="http://www.w3.org/2000/svg">
<g clip-path="url(#clip0_12_174)">
<path d="M240.183 78.1515H238.372V28.6501C238.372 24.8877 237.629 21.1622 236.187 17.6862C234.744 14.2102 232.629 11.0518 229.964 8.39138C227.298 5.73097 224.133 3.62063 220.65 2.18083C217.167 0.741032 213.434 -1.39488e-05 209.664 1.96914e-10H104.579C100.809 -1.33423e-05 97.0759 0.741031 93.5929 2.18083C90.1099 3.62063 86.9452 5.73098 84.2795 8.39139C81.6137 11.0518 79.4991 14.2102 78.0565 17.6862C76.6138 21.1622 75.8712 24.8877 75.8712 28.6501V300.219C75.8712 303.981 76.6138 307.707 78.0565 311.183C79.4991 314.659 81.6137 317.817 84.2795 320.477C86.9452 323.138 90.1099 325.248 93.5929 326.688C97.0759 328.128 100.809 328.869 104.579 328.869H209.664C213.434 328.869 217.167 328.128 220.65 326.688C224.133 325.248 227.298 323.138 229.964 320.477C232.629 317.817 234.744 314.659 236.187 311.183C237.629 307.707 238.372 303.981 238.372 300.219V113.387H240.183L240.183 78.1515Z" fill="black"/>
<path d="M354.367 327.801H22.113V328.725H354.367V327.801Z" fill="black"/>
<path opacity="0.2" d="M210.823 7.45377H197.106C197.736 8.99723 197.977 10.6718 197.807 12.33C197.636 13.9883 197.06 15.5792 196.128 16.9627C195.197 18.3462 193.938 19.4799 192.464 20.2637C190.99 21.0476 189.346 21.4577 187.675 21.4578H127.473C125.803 21.4577 124.158 21.0476 122.684 20.2637C121.21 19.4799 119.952 18.3462 119.02 16.9627C118.089 15.5792 117.512 13.9883 117.342 12.33C117.171 10.6718 117.412 8.99723 118.043 7.45377H105.231C102.416 7.45376 99.6279 8.00717 97.0269 9.08239C94.4258 10.1576 92.0625 11.7336 90.0717 13.7204C88.081 15.7071 86.5018 18.0657 85.4245 20.6616C84.3471 23.2574 83.7925 26.0396 83.7925 28.8493V300.019C83.7925 302.829 84.3471 305.611 85.4245 308.207C86.5018 310.803 88.081 313.162 90.0717 315.148C92.0625 317.135 94.4258 318.711 97.0269 319.786C99.6279 320.862 102.416 321.415 105.231 321.415H210.823C213.638 321.415 216.426 320.862 219.027 319.786C221.628 318.711 223.991 317.135 225.982 315.148C227.973 313.162 229.552 310.803 230.629 308.207C231.707 305.611 232.261 302.829 232.261 300.019V28.8493C232.261 26.0396 231.707 23.2574 230.629 20.6616C229.552 18.0657 227.973 15.7071 225.982 13.7204C223.991 11.7336 221.628 10.1576 219.027 9.08239C216.426 8.00717 213.638 7.45376 210.823 7.45377Z" fill="white"/>
<path d="M55.1155 328.676L54.6188 328.49C54.5097 328.449 43.6477 324.296 38.5595 314.878C33.4711 305.461 35.9626 294.121 35.9884 294.008L36.1057 293.492L36.6021 293.678C36.7112 293.719 47.573 297.872 52.6614 307.289C57.7498 316.707 55.2583 328.046 55.2325 328.159L55.1155 328.676ZM39.3743 314.44C43.6762 322.402 52.2597 326.484 54.4344 327.416C54.8479 325.089 56.1447 315.682 51.8466 307.728C47.549 299.774 38.9622 295.686 36.7865 294.752C36.3727 297.08 35.0765 306.486 39.3743 314.44Z" fill="url(#paint0_linear_12_174)"/>
<path d="M42.4481 311.575C51.5923 317.065 55.1141 327.971 55.1141 327.971C55.1141 327.971 43.8101 329.975 34.6659 324.484C25.5217 318.994 22 308.088 22 308.088C22 308.088 33.3039 306.084 42.4481 311.575Z" fill="url(#paint1_linear_12_174)"/>
<path d="M130.786 185.505H110.443V190.393H130.786V185.505Z" fill="url(#paint2_linear_12_174)"/>
<path d="M201.234 185.505H194.076V190.393H201.234V185.505Z" fill="url(#paint3_linear_12_174)"/>
<path d="M215.55 185.505H208.392V190.393H215.55V185.505Z" fill="url(#paint4_linear_12_174)"/>
<path d="M186.542 185.505H137.944V190.393H186.542V185.505Z" fill="url(#paint5_linear_12_174)"/>
<path d="M175.617 217.087H168.459V221.975H175.617V217.087Z" fill="url(#paint6_linear_12_174)"/>
<path d="M189.932 217.087H182.775V221.975H189.932V217.087Z" fill="url(#paint7_linear_12_174)"/>
<path d="M160.924 217.087H112.327V221.975H160.924V217.087Z" fill="url(#paint8_linear_12_174)"/>
<path d="M189.179 196.409H168.836V201.296H189.179V196.409Z" fill="url(#paint9_linear_12_174)"/>
<path d="M216.68 196.409H196.337V201.296H216.68V196.409Z" fill="url(#paint10_linear_12_174)"/>
<path d="M106.299 196.409H99.1414V201.296H106.299V196.409Z" fill="url(#paint11_linear_12_174)"/>
<path d="M162.055 196.409H113.457V201.296H162.055V196.409Z" fill="url(#paint12_linear_12_174)"/>
<path d="M126.642 211.823H146.986V206.936H126.642V211.823Z" fill="url(#paint13_linear_12_174)"/>
<path d="M99.1414 211.823H119.485V206.936H99.1414V211.823Z" fill="url(#paint14_linear_12_174)"/>
<path d="M209.522 211.823H216.68V206.936H209.522V211.823Z" fill="url(#paint15_linear_12_174)"/>
<path d="M153.767 211.823H202.364V206.936H153.767V211.823Z" fill="url(#paint16_linear_12_174)"/>
<path d="M158.027 300.521C168.25 300.521 176.537 292.25 176.537 282.048C176.537 271.845 168.25 263.575 158.027 263.575C147.804 263.575 139.517 271.845 139.517 282.048C139.517 292.25 147.804 300.521 158.027 300.521Z" fill="url(#paint17_linear_12_174)"/>
<path d="M277.379 100.439C272.007 91.3818 261.381 90.9596 261.381 90.9596C261.381 90.9596 251.027 89.6382 244.384 103.433C238.193 116.29 229.648 128.704 243.008 131.714L245.422 124.218L246.916 132.272C248.819 132.409 250.727 132.441 252.633 132.37C266.941 131.909 280.567 132.505 280.128 127.381C279.545 120.569 282.547 109.154 277.379 100.439Z" fill="#2F2E41"/>
<path d="M258.036 117.496C258.036 117.496 264.977 127.194 260.813 135.045C256.648 142.896 270.53 151.209 270.53 151.209L280.711 129.042C280.711 129.042 268.679 121.191 271.918 113.801L258.036 117.496Z" fill="#FBBEBE"/>
<path d="M262.663 121.652C269.308 121.652 274.695 116.277 274.695 109.645C274.695 103.013 269.308 97.6376 262.663 97.6376C256.019 97.6376 250.632 103.013 250.632 109.645C250.632 116.277 256.019 121.652 262.663 121.652Z" fill="#FBBEBE"/>
<path d="M221.026 123.526L231.08 110.579C231.08 110.579 234.62 97.0082 239.748 97.6962C244.876 98.3842 237.723 113.971 237.723 113.971L227.732 128.301L221.026 123.526Z" fill="#FBBEBE"/>
<path d="M271.919 295.76L275.158 312.847L282.099 314.695L280.248 294.375L271.919 295.76Z" fill="#FBBEBE"/>
<path d="M341.794 277.287L354.288 294.375L359.378 296.684L363.543 289.756L351.049 273.592L341.794 277.287Z" fill="#FBBEBE"/>
<path d="M269.142 143.82L261.423 133.679C261.423 133.679 246.467 136.431 245.079 137.816C243.691 139.202 248.781 164.602 248.781 164.602C248.781 164.602 249.706 171.529 253.871 175.224L258.036 177.995L292.279 171.068L293.567 155.862C294.036 150.323 293.34 144.748 291.525 139.493C289.71 134.238 286.814 129.42 283.024 125.347L277.066 126.16L269.142 143.82Z" fill="url(#paint18_linear_12_174)"/>
<path d="M246.93 138.74L244.616 137.816L233.973 136.893C233.973 136.893 230.271 135.969 231.197 134.122C232.122 132.274 233.047 131.813 231.197 131.351C229.346 130.889 228.883 130.427 229.346 129.042C229.808 127.656 232.585 124.885 232.585 124.885L224.718 118.42C224.718 118.42 224.292 118.72 223.604 119.276C219.698 122.432 207.34 133.819 216.389 145.205C227.032 158.598 239.526 166.449 249.706 163.678L246.93 138.74Z" fill="url(#paint19_linear_12_174)"/>
<path d="M257.11 175.686V182.151C257.11 182.151 252.946 190.002 254.334 197.392C255.722 204.781 256.185 208.475 256.185 208.475C256.336 214.76 257.428 220.986 259.424 226.948C262.663 236.185 252.02 296.684 265.44 297.607C278.86 298.531 286.264 299.455 290.428 294.836C294.593 290.218 283.487 210.784 283.487 210.784C283.487 210.784 321.433 289.756 329.299 286.524C337.166 283.291 357.064 275.902 354.751 271.745C352.437 267.589 294.13 175.224 294.13 175.224L292.279 171.068L257.11 175.686Z" fill="#2F2E41"/>
<path d="M279.323 309.615C279.323 309.615 271.919 309.153 271.919 311.462C271.919 313.771 268.217 321.622 268.217 321.622C268.217 321.622 265.44 330.859 272.844 329.935C280.248 329.011 284.875 320.699 284.875 320.699L283.024 311.924L279.323 309.615Z" fill="#2F2E41"/>
<path d="M356.602 293.451C356.602 293.451 350.123 289.295 350.586 292.066C351.049 294.836 351.511 302.226 354.751 302.687C357.99 303.149 367.708 305.92 368.17 306.844C368.633 307.768 379.739 311.462 379.739 305.458C379.739 299.455 372.798 294.836 372.798 294.836L364.931 288.833C364.931 288.833 359.841 288.371 358.915 291.604C357.99 294.836 356.602 293.451 356.602 293.451Z" fill="#2F2E41"/>
<path d="M262.682 98.6735C266.925 98.6735 270.365 95.2404 270.365 91.0055C270.365 86.7706 266.925 83.3375 262.682 83.3375C258.438 83.3375 254.998 86.7706 254.998 91.0055C254.998 95.2404 258.438 98.6735 262.682 98.6735Z" fill="#2F2E41"/>
<path d="M254.19 88.9876C254.19 87.0938 254.892 85.267 256.161 83.8592C257.431 82.4514 259.177 81.5621 261.064 81.3627C259.993 81.2488 258.909 81.3612 257.884 81.6925C256.859 82.0238 255.915 82.5666 255.113 83.2857C254.312 84.0048 253.671 84.884 253.233 85.8664C252.794 86.8487 252.567 87.9122 252.567 88.9876C252.567 90.0631 252.794 91.1265 253.233 92.1089C253.671 93.0912 254.312 93.9705 255.113 94.6896C255.915 95.4086 256.859 95.9515 257.884 96.2828C258.909 96.6141 259.993 96.7264 261.064 96.6125C259.177 96.4131 257.431 95.5238 256.161 94.116C254.892 92.7082 254.19 90.8815 254.19 88.9876Z" fill="#2F2E41"/>
<path d="M275.004 99.566L264.506 94.0777L250.008 96.3231L247.009 109.544L254.475 109.258L256.561 104.4V109.178L260.007 109.045L262.006 101.312L263.256 109.544L275.504 109.295L275.004 99.566Z" fill="#2F2E41"/>
<path d="M274.375 176.756L258.185 177.193C258.185 177.193 244.37 179.875 245.145 174.311C245.92 168.746 259.398 170.692 259.398 170.692L274.15 168.446L274.375 176.756Z" fill="#FBBEBE"/>
<path d="M287.185 124.564C287.999 124.441 288.83 124.612 289.529 125.046C290.227 125.481 290.748 126.149 290.996 126.932C294.166 136.9 303.931 170.258 294.229 174.834C282.802 180.224 274.463 179.987 274.463 179.987L270 169.02L274.063 165.214L278.401 137.378L280.479 125.578L287.185 124.564Z" fill="url(#paint20_linear_12_174)"/>
<path opacity="0.4" d="M284.181 143.127L282.33 161.6L266.134 168.527L284.181 164.371V143.127Z" fill="black"/>
<path fill-rule="evenodd" clip-rule="evenodd" d="M158.101 82.6341C151.587 76.1664 142.556 72.2456 132.649 72.4462C113.27 72.8388 97.8781 88.855 98.2709 108.219C98.6638 127.584 114.693 142.964 134.072 142.571C143.467 142.381 151.925 138.519 158.101 132.383C164.616 138.851 173.647 142.772 183.553 142.571C202.933 142.179 218.325 126.162 217.932 106.798C217.539 87.4335 201.51 72.0537 182.131 72.4462C172.736 72.6365 164.278 76.4987 158.101 82.6341Z" fill="url(#paint21_linear_12_174)"/>
<path d="M158 287C160.206 287 162 285.206 162 283V277C162 274.783 160.215 272.979 158.021 272.979C157.951 272.979 157.881 272.988 157.812 273.004C156.785 273.054 155.817 273.496 155.107 274.24C154.398 274.984 154.001 275.972 154 277V283C154 285.206 155.794 287 158 287Z" fill="white"/>
<path d="M157 290.931V293H159V290.931C162.939 290.436 166 287.073 166 283H164C164 286.309 161.309 289 158 289C154.691 289 152 286.309 152 283H150C150 287.072 153.061 290.436 157 290.931Z" fill="white"/>
</g>
<defs>
<linearGradient id="paint0_linear_12_174" x1="45.6105" y1="293.492" x2="45.6105" y2="328.676" gradientUnits="userSpaceOnUse">
<stop stop-color="#26B5F5"/>
<stop offset="1" stop-color="#3A77CD"/>
</linearGradient>
<linearGradient id="paint1_linear_12_174" x1="38.557" y1="307.731" x2="38.557" y2="328.328" gradientUnits="userSpaceOnUse">
<stop stop-color="#26B5F5"/>
<stop offset="1" stop-color="#3A77CD"/>
</linearGradient>
<linearGradient id="paint2_linear_12_174" x1="120.615" y1="185.505" x2="120.615" y2="190.393" gradientUnits="userSpaceOnUse">
<stop stop-color="#26B5F5"/>
<stop offset="1" stop-color="#3A77CD"/>
</linearGradient>
<linearGradient id="paint3_linear_12_174" x1="197.655" y1="185.505" x2="197.655" y2="190.393" gradientUnits="userSpaceOnUse">
<stop stop-color="#26B5F5"/>
<stop offset="1" stop-color="#3A77CD"/>
</linearGradient>
<linearGradient id="paint4_linear_12_174" x1="211.971" y1="185.505" x2="211.971" y2="190.393" gradientUnits="userSpaceOnUse">
<stop stop-color="#26B5F5"/>
<stop offset="1" stop-color="#3A77CD"/>
</linearGradient>
<linearGradient id="paint5_linear_12_174" x1="162.243" y1="185.505" x2="162.243" y2="190.393" gradientUnits="userSpaceOnUse">
<stop stop-color="#26B5F5"/>
<stop offset="1" stop-color="#3A77CD"/>
</linearGradient>
<linearGradient id="paint6_linear_12_174" x1="172.038" y1="217.087" x2="172.038" y2="221.975" gradientUnits="userSpaceOnUse">
<stop stop-color="#26B5F5"/>
<stop offset="1" stop-color="#3A77CD"/>
</linearGradient>
<linearGradient id="paint7_linear_12_174" x1="186.353" y1="217.087" x2="186.353" y2="221.975" gradientUnits="userSpaceOnUse">
<stop stop-color="#26B5F5"/>
<stop offset="1" stop-color="#3A77CD"/>
</linearGradient>
<linearGradient id="paint8_linear_12_174" x1="136.626" y1="217.087" x2="136.626" y2="221.975" gradientUnits="userSpaceOnUse">
<stop stop-color="#26B5F5"/>
<stop offset="1" stop-color="#3A77CD"/>
</linearGradient>
<linearGradient id="paint9_linear_12_174" x1="179.007" y1="196.409" x2="179.007" y2="201.296" gradientUnits="userSpaceOnUse">
<stop stop-color="#26B5F5"/>
<stop offset="1" stop-color="#3A77CD"/>
</linearGradient>
<linearGradient id="paint10_linear_12_174" x1="206.508" y1="196.409" x2="206.508" y2="201.296" gradientUnits="userSpaceOnUse">
<stop stop-color="#26B5F5"/>
<stop offset="1" stop-color="#3A77CD"/>
</linearGradient>
<linearGradient id="paint11_linear_12_174" x1="102.72" y1="196.409" x2="102.72" y2="201.296" gradientUnits="userSpaceOnUse">
<stop stop-color="#26B5F5"/>
<stop offset="1" stop-color="#3A77CD"/>
</linearGradient>
<linearGradient id="paint12_linear_12_174" x1="137.756" y1="196.409" x2="137.756" y2="201.296" gradientUnits="userSpaceOnUse">
<stop stop-color="#26B5F5"/>
<stop offset="1" stop-color="#3A77CD"/>
</linearGradient>
<linearGradient id="paint13_linear_12_174" x1="136.814" y1="211.823" x2="136.814" y2="206.936" gradientUnits="userSpaceOnUse">
<stop stop-color="#26B5F5"/>
<stop offset="1" stop-color="#3A77CD"/>
</linearGradient>
<linearGradient id="paint14_linear_12_174" x1="109.313" y1="211.823" x2="109.313" y2="206.936" gradientUnits="userSpaceOnUse">
<stop stop-color="#26B5F5"/>
<stop offset="1" stop-color="#3A77CD"/>
</linearGradient>
<linearGradient id="paint15_linear_12_174" x1="213.101" y1="211.823" x2="213.101" y2="206.936" gradientUnits="userSpaceOnUse">
<stop stop-color="#26B5F5"/>
<stop offset="1" stop-color="#3A77CD"/>
</linearGradient>
<linearGradient id="paint16_linear_12_174" x1="178.065" y1="211.823" x2="178.065" y2="206.936" gradientUnits="userSpaceOnUse">
<stop stop-color="#26B5F5"/>
<stop offset="1" stop-color="#3A77CD"/>
</linearGradient>
<linearGradient id="paint17_linear_12_174" x1="158.027" y1="263.575" x2="158.027" y2="300.521" gradientUnits="userSpaceOnUse">
<stop stop-color="#4CD5FA"/>
<stop offset="1" stop-color="#51A4F0"/>
</linearGradient>
<linearGradient id="paint18_linear_12_174" x1="269.274" y1="125.347" x2="269.274" y2="177.995" gradientUnits="userSpaceOnUse">
<stop stop-color="#4CD5FA"/>
<stop offset="1" stop-color="#51A4F0"/>
</linearGradient>
<linearGradient id="paint19_linear_12_174" x1="231.427" y1="118.42" x2="231.427" y2="164.232" gradientUnits="userSpaceOnUse">
<stop stop-color="#4CD5FA"/>
<stop offset="1" stop-color="#51A4F0"/>
</linearGradient>
<linearGradient id="paint20_linear_12_174" x1="284.208" y1="124.525" x2="284.208" y2="179.989" gradientUnits="userSpaceOnUse">
<stop stop-color="#4CD5FA"/>
<stop offset="1" stop-color="#51A4F0"/>
</linearGradient>
<linearGradient id="paint21_linear_12_174" x1="158.101" y1="72.4389" x2="158.101" y2="142.579" gradientUnits="userSpaceOnUse">
<stop stop-color="#26B5F5"/>
<stop offset="1" stop-color="#3A77CD"/>
</linearGradient>
<clipPath id="clip0_12_174">
<rect width="379.739" height="330" fill="white"/>
</clipPath>
</defs>
</svg>
