<svg width="52" height="52" viewBox="0 0 52 52" fill="none" xmlns="http://www.w3.org/2000/svg">
<circle cx="26" cy="26" r="26" fill="#D9D9D9" fill-opacity="0.55"/>
<path d="M38.65 29.2C38.292 29.2 37.9486 29.3422 37.6954 29.5954C37.4422 29.8486 37.3 30.192 37.3 30.55V35.95C37.3 36.308 37.1578 36.6514 36.9046 36.9046C36.6514 37.1578 36.308 37.3 35.95 37.3H17.05C16.692 37.3 16.3486 37.1578 16.0954 36.9046C15.8422 36.6514 15.7 36.308 15.7 35.95V30.55C15.7 30.192 15.5578 29.8486 15.3046 29.5954C15.0514 29.3422 14.708 29.2 14.35 29.2C13.992 29.2 13.6486 29.3422 13.3954 29.5954C13.1422 29.8486 13 30.192 13 30.55V35.95C13 37.0241 13.4267 38.0543 14.1862 38.8138C14.9457 39.5733 15.9759 40 17.05 40H35.95C37.0241 40 38.0543 39.5733 38.8138 38.8138C39.5733 38.0543 40 37.0241 40 35.95V30.55C40 30.192 39.8578 29.8486 39.6046 29.5954C39.3514 29.3422 39.008 29.2 38.65 29.2ZM25.5415 31.5085C25.6699 31.6314 25.8213 31.7277 25.987 31.792C26.1486 31.8634 26.3233 31.9003 26.5 31.9003C26.6767 31.9003 26.8514 31.8634 27.013 31.792C27.1787 31.7277 27.3301 31.6314 27.4585 31.5085L32.8585 26.1085C33.1127 25.8543 33.2555 25.5095 33.2555 25.15C33.2555 24.7905 33.1127 24.4457 32.8585 24.1915C32.6043 23.9373 32.2595 23.7945 31.9 23.7945C31.5405 23.7945 31.1957 23.9373 30.9415 24.1915L27.85 27.2965V14.35C27.85 13.992 27.7078 13.6486 27.4546 13.3954C27.2014 13.1422 26.858 13 26.5 13C26.142 13 25.7986 13.1422 25.5454 13.3954C25.2922 13.6486 25.15 13.992 25.15 14.35V27.2965L22.0585 24.1915C21.9326 24.0656 21.7832 23.9658 21.6187 23.8977C21.4543 23.8295 21.278 23.7945 21.1 23.7945C20.922 23.7945 20.7457 23.8295 20.5813 23.8977C20.4168 23.9658 20.2674 24.0656 20.1415 24.1915C20.0156 24.3174 19.9158 24.4668 19.8477 24.6313C19.7795 24.7957 19.7445 24.972 19.7445 25.15C19.7445 25.328 19.7795 25.5043 19.8477 25.6687C19.9158 25.8332 20.0156 25.9826 20.1415 26.1085L25.5415 31.5085Z" fill="url(#paint0_linear_15_522)"/>
<defs>
<linearGradient id="paint0_linear_15_522" x1="26.5" y1="13" x2="26.5" y2="40" gradientUnits="userSpaceOnUse">
<stop stop-color="#4CD5FA"/>
<stop offset="1" stop-color="#51A4F0"/>
</linearGradient>
</defs>
</svg>
