<svg width="295" height="253" viewBox="0 0 295 253" fill="none" xmlns="http://www.w3.org/2000/svg">
<g clip-path="url(#clip0_15_463)">
<path d="M91.9061 125.974C92.9626 130.218 91.5493 134.2 88.7497 134.868C85.9501 135.537 82.8249 132.638 81.7686 128.393C81.3226 126.702 81.3026 124.931 81.7103 123.226L77.4692 105.188L86.2847 103.386L89.5297 121.359C90.6932 122.689 91.508 124.272 91.9061 125.974Z" fill="#FDADB0"/>
<path d="M54.9466 229.115L55.4897 240.937L54.9458 244.208L56.8495 248.025L71.8074 249.661L72.6232 242.573L64.7364 238.483L64.5071 231.803L54.9466 229.115Z" fill="#FDADB0"/>
<path d="M70.7195 246.934L69.9036 248.025L54.2391 243.5C54.2391 243.5 54.9458 250.478 54.9458 251.842C54.9458 253.205 80.782 253.205 84.6698 252.659C88.5575 252.114 87.3091 248.57 87.3091 248.57L71.1866 240.92L70.7195 246.934Z" fill="#2F2E43"/>
<path d="M15.9762 220.412L12.7164 231.787L11.1567 234.712L11.7418 238.938L25.3908 245.286L28.4266 238.833L22.2601 232.429L26.1283 222.374L15.9762 220.412Z" fill="#FDADB0"/>
<path d="M25.2305 242.355L24.1094 243.126L10.7133 233.814C10.7133 233.814 9.15489 240.652 8.71972 241.944C8.28455 243.235 32.762 251.523 36.6194 252.254C40.4767 252.984 40.4254 249.226 40.4254 249.226L27.5932 236.807L25.2305 242.355Z" fill="#2F2E43"/>
<path opacity="0.25" d="M272.093 216.693C289.385 203.5 297.645 181.33 292.474 160.182C292.345 159.656 292.21 159.132 292.067 158.609C288.639 146.056 280.158 134.125 267.798 130.114C257.419 126.746 246.091 129.336 235.263 127.996C214.009 125.367 197.53 108.141 185.936 90.1053C174.341 72.0694 165.43 51.8809 150.023 36.9806C124.628 12.4201 83.2013 7.13216 51.7145 23.1192C20.2277 39.1064 0.17096 74.5751 1.02632 109.924C1.88173 145.273 22.8322 179.069 53.2576 197C64.4346 203.588 77.3619 208.254 90.2272 206.621C101.39 205.204 111.533 199.196 122.644 197.412C140.112 194.608 157.469 202.519 172.578 211.738C187.686 220.957 202.28 231.884 219.449 236.158C236.121 240.307 256.774 228.38 272.093 216.693Z" fill="url(#paint0_linear_15_463)"/>
<path d="M56.001 33.9358L56.5722 43.2335L39.2521 44.1142L44.6155 31.8643L56.001 33.9358Z" fill="#FDADB0"/>
<path d="M57.0141 41.8428C52.3716 43.9185 44.9462 43.3506 36.5313 41.8428L35.2161 100.282C35.2161 100.282 61.5393 105.587 70.5898 95.7989L65.8264 48.0502L57.0141 41.8428Z" fill="#E0E1E2"/>
<path d="M67.7318 97.2314L30.5699 100.913L12.2308 225.735H26.283L50.3452 140.205L52.2506 237.135H65.1119L76.0678 118.48L67.7318 97.2314Z" fill="#2F2E43"/>
<path d="M41.8145 38.2617L29.3285 45.6682C24.5985 48.474 22.3691 54.1379 23.9134 59.4253L33.5634 92.4636C33.5634 92.4636 17.8492 119.525 22.9554 121.912C34.4299 127.277 51.5521 125.971 51.5521 125.971L47.7253 61.1811L41.8145 38.2617Z" fill="url(#paint1_linear_15_463)"/>
<path d="M56.4716 41.5971L70.5898 47.0952L73.9242 87.9204L83.262 120.809C67.4459 126.596 68.9225 123.899 68.9225 123.899L66.3027 67.1497L56.4716 41.5971Z" fill="url(#paint2_linear_15_463)"/>
<path d="M77.096 120.113L77.0477 119.89L62.6161 52.9817C62.2128 51.1122 62.7285 49.2382 64.0307 47.8401C65.3328 46.4417 67.163 45.7977 69.0515 46.0729C71.3808 46.4124 73.2457 48.1132 73.802 50.406L89.6537 115.72L77.096 120.113Z" fill="url(#paint3_linear_15_463)"/>
<path d="M48.4856 36.4059C56.2463 36.4059 62.5375 30.0995 62.5375 22.3202C62.5375 14.5409 56.2463 8.23456 48.4856 8.23456C40.725 8.23456 34.4337 14.5409 34.4337 22.3202C34.4337 30.0995 40.725 36.4059 48.4856 36.4059Z" fill="#FDADB0"/>
<path d="M55.1709 4.07117C58.266 5.16163 60.0371 5.78561 61.6594 7.35229C64.3997 9.99866 64.852 13.5352 65.2722 16.8211C65.601 19.3918 66.026 22.7154 64.5243 26.5128C64.0118 27.8087 61.5259 33.5824 56.7676 34.312C55.8331 34.4553 53.6392 34.493 54.2716 34.025C60.124 29.6939 62.6217 27.0792 62.4169 20.4042C62.2897 16.2567 55.9673 11.7787 52.2132 10.9738C50.6318 10.6347 48.5264 10.9444 47.0166 12.1868C43.8614 14.7833 43.9961 25.5203 40.669 27.7648C39.3008 28.6878 40.2125 22.1903 39.2484 23.244C37.3461 25.323 38.5663 28.5069 38.9082 29.7195C40.5296 35.4709 43.5867 36.0339 45.1704 40.9453C46.8803 46.2479 44.7283 51.2403 44.2179 52.4241C43.3303 54.4835 41.8067 58.0179 38.3259 59.7135C33.9078 61.8657 30.4252 59.0631 28.3712 61.4658C27.2229 62.809 27.844 64.2315 25.7702 68.4094C25.0932 69.7732 24.7547 70.4552 24.455 70.431C23.0369 70.3165 20.7408 58.9377 24.4543 48.3407C26.0128 43.8935 27.5396 39.5363 31.6321 36.1292C33.7959 34.328 35.6106 33.6798 36.1272 31.5763C36.8651 28.5711 33.8009 27.2885 33.1866 22.5469C32.7666 19.3041 32.4719 14.6662 33.6141 11.6936C34.6927 8.88644 35.629 6.44962 38.0798 4.24019C38.6684 3.70951 43.42 0.102266 48.4581 0.000512264C50.7775 -0.0462647 52.4817 3.12377 55.1709 4.07117Z" fill="#2F2E43"/>
<path d="M115.68 114.634C115.5 114.634 115.327 114.563 115.2 114.435C115.073 114.308 115.002 114.136 115.002 113.956V90.2224C115.002 90.0426 115.073 89.8701 115.2 89.7429C115.327 89.6158 115.5 89.5443 115.68 89.5443C115.86 89.5443 116.032 89.6158 116.159 89.7429C116.286 89.8701 116.358 90.0426 116.358 90.2224V113.956C116.358 114.136 116.286 114.308 116.159 114.435C116.032 114.563 115.86 114.634 115.68 114.634Z" fill="url(#paint4_linear_15_463)"/>
<path d="M120.427 118.364C120.247 118.364 120.074 118.292 119.947 118.165C119.82 118.038 119.748 117.865 119.748 117.685V86.4929C119.748 86.313 119.82 86.1406 119.947 86.0134C120.074 85.8862 120.247 85.8148 120.427 85.8148C120.606 85.8148 120.779 85.8862 120.906 86.0134C121.033 86.1406 121.105 86.313 121.105 86.4929V117.685C121.105 117.865 121.033 118.038 120.906 118.165C120.779 118.292 120.606 118.364 120.427 118.364Z" fill="url(#paint5_linear_15_463)"/>
<path d="M125.173 120.737C124.993 120.737 124.821 120.665 124.694 120.538C124.567 120.411 124.495 120.239 124.495 120.059V84.1196C124.495 83.9397 124.567 83.7672 124.694 83.6401C124.821 83.5129 124.993 83.4415 125.173 83.4415C125.353 83.4415 125.526 83.5129 125.653 83.6401C125.78 83.7672 125.851 83.9397 125.851 84.1196V120.059C125.851 120.239 125.78 120.411 125.653 120.538C125.526 120.665 125.353 120.737 125.173 120.737Z" fill="url(#paint6_linear_15_463)"/>
<path d="M129.92 126.84C129.74 126.84 129.568 126.768 129.44 126.641C129.313 126.514 129.242 126.342 129.242 126.162V78.0167C129.242 77.8368 129.313 77.6643 129.44 77.5372C129.568 77.41 129.74 77.3386 129.92 77.3386C130.1 77.3386 130.272 77.41 130.399 77.5372C130.527 77.6643 130.598 77.8368 130.598 78.0167V126.162C130.598 126.342 130.527 126.514 130.399 126.641C130.272 126.768 130.1 126.84 129.92 126.84Z" fill="url(#paint7_linear_15_463)"/>
<path d="M134.667 135.994C134.487 135.994 134.314 135.923 134.187 135.795C134.06 135.668 133.989 135.496 133.989 135.316V68.8623C133.989 68.6825 134.06 68.51 134.187 68.3828C134.314 68.2557 134.487 68.1842 134.667 68.1842C134.846 68.1842 135.019 68.2557 135.146 68.3828C135.273 68.51 135.345 68.6825 135.345 68.8623V135.316C135.345 135.496 135.273 135.668 135.146 135.795C135.019 135.923 134.846 135.994 134.667 135.994Z" fill="url(#paint8_linear_15_463)"/>
<path d="M139.413 126.84C139.233 126.84 139.061 126.768 138.934 126.641C138.807 126.514 138.735 126.342 138.735 126.162V78.0167C138.735 77.8368 138.807 77.6643 138.934 77.5372C139.061 77.41 139.233 77.3386 139.413 77.3386C139.593 77.3386 139.766 77.41 139.893 77.5372C140.02 77.6643 140.091 77.8368 140.091 78.0167V126.162C140.091 126.342 140.02 126.514 139.893 126.641C139.766 126.768 139.593 126.84 139.413 126.84Z" fill="url(#paint9_linear_15_463)"/>
<path d="M144.16 131.247C143.98 131.247 143.808 131.176 143.68 131.049C143.553 130.922 143.482 130.749 143.482 130.569V73.609C143.482 73.4292 143.553 73.2567 143.68 73.1295C143.808 73.0023 143.98 72.9309 144.16 72.9309C144.34 72.9309 144.512 73.0023 144.639 73.1295C144.767 73.2567 144.838 73.4292 144.838 73.609V130.569C144.838 130.749 144.767 130.922 144.639 131.049C144.512 131.176 144.34 131.247 144.16 131.247Z" fill="url(#paint10_linear_15_463)"/>
<path d="M148.907 119.72C148.727 119.72 148.554 119.648 148.427 119.521C148.3 119.394 148.229 119.221 148.229 119.042V85.1367C148.229 84.9569 148.3 84.7844 148.427 84.6572C148.554 84.53 148.727 84.4586 148.907 84.4586C149.086 84.4586 149.259 84.53 149.386 84.6572C149.513 84.7844 149.585 84.9569 149.585 85.1367V119.042C149.585 119.221 149.513 119.394 149.386 119.521C149.259 119.648 149.086 119.72 148.907 119.72Z" fill="url(#paint11_linear_15_463)"/>
<path d="M153.653 122.432C153.473 122.432 153.301 122.361 153.174 122.234C153.047 122.106 152.975 121.934 152.975 121.754V82.4243C152.975 82.2445 153.047 82.072 153.174 81.9448C153.301 81.8176 153.473 81.7462 153.653 81.7462C153.833 81.7462 154.006 81.8176 154.133 81.9448C154.26 82.072 154.331 82.2445 154.331 82.4243V121.754C154.331 121.934 154.26 122.106 154.133 122.234C154.006 122.361 153.833 122.432 153.653 122.432Z" fill="url(#paint12_linear_15_463)"/>
<path d="M158.4 114.634C158.22 114.634 158.048 114.563 157.921 114.435C157.793 114.308 157.722 114.136 157.722 113.956V90.2224C157.722 90.0426 157.793 89.8701 157.921 89.7429C158.048 89.6158 158.22 89.5443 158.4 89.5443C158.58 89.5443 158.752 89.6158 158.88 89.7429C159.007 89.8701 159.078 90.0426 159.078 90.2224V113.956C159.078 114.136 159.007 114.308 158.88 114.435C158.752 114.563 158.58 114.634 158.4 114.634Z" fill="url(#paint13_linear_15_463)"/>
<path d="M162.469 114.634C162.289 114.634 162.116 114.563 161.989 114.435C161.862 114.308 161.791 114.136 161.791 113.956V90.2224C161.791 90.0426 161.862 89.8701 161.989 89.7429C162.116 89.6158 162.289 89.5443 162.469 89.5443C162.648 89.5443 162.821 89.6158 162.948 89.7429C163.075 89.8701 163.147 90.0426 163.147 90.2224V113.956C163.147 114.136 163.075 114.308 162.948 114.435C162.821 114.563 162.648 114.634 162.469 114.634Z" fill="url(#paint14_linear_15_463)"/>
<path d="M167.215 118.364C167.035 118.364 166.863 118.292 166.736 118.165C166.609 118.038 166.537 117.865 166.537 117.685V86.4929C166.537 86.313 166.609 86.1406 166.736 86.0134C166.863 85.8862 167.035 85.8148 167.215 85.8148C167.395 85.8148 167.568 85.8862 167.695 86.0134C167.822 86.1406 167.893 86.313 167.893 86.4929V117.685C167.893 117.865 167.822 118.038 167.695 118.165C167.568 118.292 167.395 118.364 167.215 118.364Z" fill="url(#paint15_linear_15_463)"/>
<path d="M171.962 120.737C171.782 120.737 171.61 120.665 171.483 120.538C171.355 120.411 171.284 120.239 171.284 120.059V84.1196C171.284 83.9397 171.355 83.7672 171.483 83.6401C171.61 83.5129 171.782 83.4415 171.962 83.4415C172.142 83.4415 172.314 83.5129 172.442 83.6401C172.569 83.7672 172.64 83.9397 172.64 84.1196V120.059C172.64 120.239 172.569 120.411 172.442 120.538C172.314 120.665 172.142 120.737 171.962 120.737Z" fill="url(#paint16_linear_15_463)"/>
<path d="M176.709 126.84C176.529 126.84 176.356 126.768 176.229 126.641C176.102 126.514 176.031 126.342 176.031 126.162V78.0167C176.031 77.8368 176.102 77.6643 176.229 77.5372C176.356 77.41 176.529 77.3386 176.709 77.3386C176.889 77.3386 177.061 77.41 177.188 77.5372C177.315 77.6643 177.387 77.8368 177.387 78.0167V126.162C177.387 126.342 177.315 126.514 177.188 126.641C177.061 126.768 176.889 126.84 176.709 126.84Z" fill="url(#paint17_linear_15_463)"/>
<path d="M181.455 146.844C181.276 146.844 181.103 146.772 180.976 146.645C180.849 146.518 180.777 146.345 180.777 146.166V58.0127C180.777 57.8329 180.849 57.6604 180.976 57.5332C181.103 57.4061 181.276 57.3346 181.455 57.3346C181.635 57.3346 181.808 57.4061 181.935 57.5332C182.062 57.6604 182.134 57.8329 182.134 58.0127V146.166C182.134 146.345 182.062 146.518 181.935 146.645C181.808 146.772 181.635 146.844 181.455 146.844Z" fill="url(#paint18_linear_15_463)"/>
<path d="M186.202 126.84C186.022 126.84 185.85 126.768 185.723 126.641C185.595 126.514 185.524 126.342 185.524 126.162V78.0167C185.524 77.8368 185.595 77.6643 185.723 77.5372C185.85 77.41 186.022 77.3386 186.202 77.3386C186.382 77.3386 186.554 77.41 186.682 77.5372C186.809 77.6643 186.88 77.8368 186.88 78.0167V126.162C186.88 126.342 186.809 126.514 186.682 126.641C186.554 126.768 186.382 126.84 186.202 126.84Z" fill="url(#paint19_linear_15_463)"/>
<path d="M190.949 131.247C190.769 131.247 190.597 131.176 190.469 131.049C190.342 130.922 190.271 130.749 190.271 130.569V73.609C190.271 73.4292 190.342 73.2567 190.469 73.1295C190.597 73.0023 190.769 72.9309 190.949 72.9309C191.129 72.9309 191.301 73.0023 191.428 73.1295C191.555 73.2567 191.627 73.4292 191.627 73.609V130.569C191.627 130.749 191.555 130.922 191.428 131.049C191.301 131.176 191.129 131.247 190.949 131.247Z" fill="url(#paint20_linear_15_463)"/>
<path d="M195.695 119.72C195.516 119.72 195.343 119.648 195.216 119.521C195.089 119.394 195.017 119.221 195.017 119.042V85.1367C195.017 84.9569 195.089 84.7844 195.216 84.6572C195.343 84.53 195.516 84.4586 195.695 84.4586C195.875 84.4586 196.048 84.53 196.175 84.6572C196.302 84.7844 196.374 84.9569 196.374 85.1367V119.042C196.374 119.221 196.302 119.394 196.175 119.521C196.048 119.648 195.875 119.72 195.695 119.72Z" fill="url(#paint21_linear_15_463)"/>
<path d="M200.442 122.432C200.262 122.432 200.09 122.361 199.963 122.234C199.835 122.106 199.764 121.934 199.764 121.754V82.4243C199.764 82.2445 199.835 82.072 199.963 81.9448C200.09 81.8176 200.262 81.7462 200.442 81.7462C200.622 81.7462 200.794 81.8176 200.922 81.9448C201.049 82.072 201.12 82.2445 201.12 82.4243V121.754C201.12 121.934 201.049 122.106 200.922 122.234C200.794 122.361 200.622 122.432 200.442 122.432Z" fill="url(#paint22_linear_15_463)"/>
<path d="M205.189 114.634C205.009 114.634 204.837 114.563 204.709 114.435C204.582 114.308 204.511 114.136 204.511 113.956V90.2224C204.511 90.0426 204.582 89.8701 204.709 89.7429C204.837 89.6158 205.009 89.5443 205.189 89.5443C205.369 89.5443 205.541 89.6158 205.668 89.7429C205.795 89.8701 205.867 90.0426 205.867 90.2224V113.956C205.867 114.136 205.795 114.308 205.668 114.435C205.541 114.563 205.369 114.634 205.189 114.634Z" fill="url(#paint23_linear_15_463)"/>
<path d="M209.257 114.634C209.078 114.634 208.905 114.563 208.778 114.435C208.651 114.308 208.579 114.136 208.579 113.956V90.2224C208.579 90.0426 208.651 89.8701 208.778 89.7429C208.905 89.6158 209.078 89.5443 209.257 89.5443C209.437 89.5443 209.61 89.6158 209.737 89.7429C209.864 89.8701 209.936 90.0426 209.936 90.2224V113.956C209.936 114.136 209.864 114.308 209.737 114.435C209.61 114.563 209.437 114.634 209.257 114.634Z" fill="url(#paint24_linear_15_463)"/>
<path d="M214.004 118.364C213.824 118.364 213.652 118.292 213.525 118.165C213.397 118.038 213.326 117.865 213.326 117.685V86.4929C213.326 86.313 213.397 86.1406 213.525 86.0134C213.652 85.8862 213.824 85.8148 214.004 85.8148C214.184 85.8148 214.356 85.8862 214.484 86.0134C214.611 86.1406 214.682 86.313 214.682 86.4929V117.685C214.682 117.865 214.611 118.038 214.484 118.165C214.356 118.292 214.184 118.364 214.004 118.364Z" fill="url(#paint25_linear_15_463)"/>
<path d="M218.751 120.737C218.571 120.737 218.399 120.665 218.271 120.538C218.144 120.411 218.073 120.239 218.073 120.059V84.1196C218.073 83.9397 218.144 83.7672 218.271 83.6401C218.399 83.5129 218.571 83.4415 218.751 83.4415C218.931 83.4415 219.103 83.5129 219.23 83.6401C219.357 83.7672 219.429 83.9397 219.429 84.1196V120.059C219.429 120.239 219.357 120.411 219.23 120.538C219.103 120.665 218.931 120.737 218.751 120.737Z" fill="url(#paint26_linear_15_463)"/>
<path d="M223.498 126.84C223.318 126.84 223.145 126.768 223.018 126.641C222.891 126.514 222.819 126.342 222.819 126.162V78.0167C222.819 77.8368 222.891 77.6643 223.018 77.5372C223.145 77.41 223.318 77.3386 223.498 77.3386C223.677 77.3386 223.85 77.41 223.977 77.5372C224.104 77.6643 224.176 77.8368 224.176 78.0167V126.162C224.176 126.342 224.104 126.514 223.977 126.641C223.85 126.768 223.677 126.84 223.498 126.84Z" fill="url(#paint27_linear_15_463)"/>
<path d="M228.244 135.994C228.064 135.994 227.892 135.923 227.765 135.795C227.638 135.668 227.566 135.496 227.566 135.316V68.8623C227.566 68.6825 227.638 68.51 227.765 68.3828C227.892 68.2557 228.064 68.1842 228.244 68.1842C228.424 68.1842 228.597 68.2557 228.724 68.3828C228.851 68.51 228.922 68.6825 228.922 68.8623V135.316C228.922 135.496 228.851 135.668 228.724 135.795C228.597 135.923 228.424 135.994 228.244 135.994Z" fill="url(#paint28_linear_15_463)"/>
<path d="M181.637 161.178C181.456 161.178 181.283 161.114 181.156 161C181.028 160.885 180.957 160.73 180.957 160.568V46.7884C180.957 46.6266 181.028 46.4714 181.156 46.357C181.283 46.2426 181.456 46.1783 181.637 46.1783C181.817 46.1783 181.99 46.2426 182.117 46.357C182.245 46.4714 182.317 46.6266 182.317 46.7884V160.568C182.317 160.73 182.245 160.885 182.117 161C181.99 161.114 181.817 161.178 181.637 161.178Z" fill="#333333"/>
<path d="M232.991 126.84C232.811 126.84 232.639 126.768 232.511 126.641C232.384 126.514 232.313 126.342 232.313 126.162V78.0167C232.313 77.8368 232.384 77.6643 232.511 77.5372C232.639 77.41 232.811 77.3386 232.991 77.3386C233.171 77.3386 233.343 77.41 233.47 77.5372C233.598 77.6643 233.669 77.8368 233.669 78.0167V126.162C233.669 126.342 233.598 126.514 233.47 126.641C233.343 126.768 233.171 126.84 232.991 126.84Z" fill="url(#paint29_linear_15_463)"/>
<path d="M237.738 131.247C237.558 131.247 237.385 131.176 237.258 131.049C237.131 130.922 237.06 130.749 237.06 130.569V73.609C237.06 73.4292 237.131 73.2567 237.258 73.1295C237.385 73.0023 237.558 72.9309 237.738 72.9309C237.918 72.9309 238.09 73.0023 238.217 73.1295C238.344 73.2567 238.416 73.4292 238.416 73.609V130.569C238.416 130.749 238.344 130.922 238.217 131.049C238.09 131.176 237.918 131.247 237.738 131.247Z" fill="url(#paint30_linear_15_463)"/>
<path d="M242.484 119.72C242.304 119.72 242.132 119.648 242.005 119.521C241.878 119.394 241.806 119.221 241.806 119.042V85.1367C241.806 84.9569 241.878 84.7844 242.005 84.6572C242.132 84.53 242.304 84.4586 242.484 84.4586C242.664 84.4586 242.837 84.53 242.964 84.6572C243.091 84.7844 243.162 84.9569 243.162 85.1367V119.042C243.162 119.221 243.091 119.394 242.964 119.521C242.837 119.648 242.664 119.72 242.484 119.72Z" fill="url(#paint31_linear_15_463)"/>
<path d="M247.231 122.432C247.051 122.432 246.879 122.361 246.751 122.234C246.624 122.106 246.553 121.934 246.553 121.754V82.4243C246.553 82.2445 246.624 82.072 246.751 81.9448C246.879 81.8176 247.051 81.7462 247.231 81.7462C247.411 81.7462 247.583 81.8176 247.71 81.9448C247.838 82.072 247.909 82.2445 247.909 82.4243V121.754C247.909 121.934 247.838 122.106 247.71 122.234C247.583 122.361 247.411 122.432 247.231 122.432Z" fill="url(#paint32_linear_15_463)"/>
<path d="M251.978 114.634C251.798 114.634 251.625 114.563 251.498 114.435C251.371 114.308 251.3 114.136 251.3 113.956V90.2224C251.3 90.0426 251.371 89.8701 251.498 89.7429C251.625 89.6158 251.798 89.5443 251.978 89.5443C252.158 89.5443 252.33 89.6158 252.457 89.7429C252.584 89.8701 252.656 90.0426 252.656 90.2224V113.956C252.656 114.136 252.584 114.308 252.457 114.435C252.33 114.563 252.158 114.634 251.978 114.634Z" fill="url(#paint33_linear_15_463)"/>
<path d="M256.046 114.634C255.866 114.634 255.694 114.563 255.567 114.435C255.44 114.308 255.368 114.136 255.368 113.956V90.2224C255.368 90.0426 255.44 89.8701 255.567 89.7429C255.694 89.6158 255.866 89.5443 256.046 89.5443C256.226 89.5443 256.399 89.6158 256.526 89.7429C256.653 89.8701 256.724 90.0426 256.724 90.2224V113.956C256.724 114.136 256.653 114.308 256.526 114.435C256.399 114.563 256.226 114.634 256.046 114.634Z" fill="url(#paint34_linear_15_463)"/>
<path d="M260.793 118.364C260.613 118.364 260.441 118.292 260.313 118.165C260.186 118.038 260.115 117.865 260.115 117.685V86.4929C260.115 86.313 260.186 86.1406 260.313 86.0134C260.441 85.8862 260.613 85.8148 260.793 85.8148C260.973 85.8148 261.145 85.8862 261.272 86.0134C261.4 86.1406 261.471 86.313 261.471 86.4929V117.685C261.471 117.865 261.4 118.038 261.272 118.165C261.145 118.292 260.973 118.364 260.793 118.364Z" fill="url(#paint35_linear_15_463)"/>
<path d="M265.54 120.737C265.36 120.737 265.187 120.665 265.06 120.538C264.933 120.411 264.862 120.239 264.862 120.059V84.1196C264.862 83.9397 264.933 83.7672 265.06 83.6401C265.187 83.5129 265.36 83.4415 265.54 83.4415C265.72 83.4415 265.892 83.5129 266.019 83.6401C266.146 83.7672 266.218 83.9397 266.218 84.1196V120.059C266.218 120.239 266.146 120.411 266.019 120.538C265.892 120.665 265.72 120.737 265.54 120.737Z" fill="url(#paint36_linear_15_463)"/>
<path d="M270.286 126.84C270.107 126.84 269.934 126.768 269.807 126.641C269.68 126.514 269.608 126.342 269.608 126.162V78.0167C269.608 77.8368 269.68 77.6643 269.807 77.5372C269.934 77.41 270.107 77.3386 270.286 77.3386C270.466 77.3386 270.639 77.41 270.766 77.5372C270.893 77.6643 270.964 77.8368 270.964 78.0167V126.162C270.964 126.342 270.893 126.514 270.766 126.641C270.639 126.768 270.466 126.84 270.286 126.84Z" fill="url(#paint37_linear_15_463)"/>
<path d="M275.033 146.844C274.853 146.844 274.681 146.772 274.554 146.645C274.426 146.518 274.355 146.345 274.355 146.166V58.0127C274.355 57.8329 274.426 57.6604 274.554 57.5332C274.681 57.4061 274.853 57.3346 275.033 57.3346C275.213 57.3346 275.385 57.4061 275.513 57.5332C275.64 57.6604 275.711 57.8329 275.711 58.0127V146.166C275.711 146.345 275.64 146.518 275.513 146.645C275.385 146.772 275.213 146.844 275.033 146.844Z" fill="url(#paint38_linear_15_463)"/>
<path d="M279.78 126.84C279.6 126.84 279.427 126.768 279.3 126.641C279.173 126.514 279.102 126.342 279.102 126.162V78.0167C279.102 77.8368 279.173 77.6643 279.3 77.5372C279.427 77.41 279.6 77.3386 279.78 77.3386C279.96 77.3386 280.132 77.41 280.259 77.5372C280.386 77.6643 280.458 77.8368 280.458 78.0167V126.162C280.458 126.342 280.386 126.514 280.259 126.641C280.132 126.768 279.96 126.84 279.78 126.84Z" fill="url(#paint39_linear_15_463)"/>
<path d="M284.526 131.247C284.347 131.247 284.174 131.176 284.047 131.049C283.92 130.922 283.848 130.749 283.848 130.569V73.609C283.848 73.4292 283.92 73.2567 284.047 73.1295C284.174 73.0023 284.347 72.9309 284.526 72.9309C284.706 72.9309 284.879 73.0023 285.006 73.1295C285.133 73.2567 285.205 73.4292 285.205 73.609V130.569C285.205 130.749 285.133 130.922 285.006 131.049C284.879 131.176 284.706 131.247 284.526 131.247Z" fill="url(#paint40_linear_15_463)"/>
<path d="M289.273 119.72C289.093 119.72 288.921 119.648 288.794 119.521C288.667 119.394 288.595 119.221 288.595 119.042V85.1367C288.595 84.9569 288.667 84.7844 288.794 84.6572C288.921 84.53 289.093 84.4586 289.273 84.4586C289.453 84.4586 289.626 84.53 289.753 84.6572C289.88 84.7844 289.951 84.9569 289.951 85.1367V119.042C289.951 119.221 289.88 119.394 289.753 119.521C289.626 119.648 289.453 119.72 289.273 119.72Z" fill="url(#paint41_linear_15_463)"/>
<path d="M294.02 122.432C293.84 122.432 293.668 122.361 293.54 122.234C293.413 122.106 293.342 121.934 293.342 121.754V82.4243C293.342 82.2445 293.413 82.072 293.54 81.9448C293.668 81.8176 293.84 81.7462 294.02 81.7462C294.2 81.7462 294.372 81.8176 294.499 81.9448C294.627 82.072 294.698 82.2445 294.698 82.4243V121.754C294.698 121.934 294.627 122.106 294.499 122.234C294.372 122.361 294.2 122.432 294.02 122.432Z" fill="url(#paint42_linear_15_463)"/>
<path d="M85.1046 127.492C104.086 127.492 119.473 112.068 119.473 93.0409C119.473 74.0139 104.086 58.5895 85.1046 58.5895C66.1232 58.5895 50.7357 74.0139 50.7357 93.0409C50.7357 112.068 66.1232 127.492 85.1046 127.492Z" fill="url(#paint43_linear_15_463)"/>
<g clip-path="url(#clip1_15_463)">
<path d="M81.2179 99.0047C84.6639 101.177 89.2296 100.136 91.3978 96.6828L97.2949 87.2907C99.4739 83.8203 98.4586 79.2384 95.0313 77.0775C94.9209 77.0089 94.8032 76.953 94.6802 76.9108C93.0274 75.9775 91.0798 75.7166 89.2403 76.1821C87.4009 76.6476 85.8104 77.8038 84.7979 79.4116L78.9008 88.8037C76.7326 92.2569 77.7718 96.832 81.2179 99.0047Z" fill="white"/>
<path d="M75.7922 104.173L73.7586 107.412L76.8829 109.382L78.9164 106.143C85.5561 109.248 93.6431 106.998 97.6463 100.622L94.522 98.6526C91.2698 103.832 84.4212 105.394 79.2522 102.135C74.0831 98.8764 72.5243 92.0137 75.7766 86.8339L72.6523 84.8642C68.6502 91.2383 70.1255 99.5189 75.7922 104.173Z" fill="white"/>
</g>
<path d="M0 252.348C0 252.615 0.213701 252.829 0.479817 252.829H294.52C294.786 252.829 295 252.615 295 252.348C295 252.081 294.786 251.867 294.52 251.867H0.479817C0.213701 251.867 0 252.081 0 252.348Z" fill="#3F3D58"/>
<path d="M55.853 85.6386C60.1925 85.1809 63.9296 87.1385 64.1999 90.0105C64.4701 92.8826 61.1716 95.581 56.8304 96.0383C55.0986 96.2456 53.3456 96.0187 51.7181 95.3765L33.3084 97.0742L32.7557 88.0727L50.9631 87.3548C52.4393 86.3851 54.116 85.7967 55.853 85.6386Z" fill="#FDADB0"/>
<path d="M25.4236 46.0953C20.9673 45.4661 16.7865 48.4032 15.8603 52.8177C12.6288 68.2191 6.8299 101.026 15.9377 101.574C27.8463 102.29 39.2785 99.425 39.2785 99.425L36.4205 82.9517L27.1318 81.9967L32.5956 56.3788C33.633 51.5146 30.3373 46.789 25.4236 46.0953Z" fill="url(#paint44_linear_15_463)"/>
<path d="M260.601 253L261.04 252.834C261.137 252.797 270.742 249.082 275.241 240.658C279.741 232.233 277.537 222.09 277.515 221.988L277.411 221.526L276.972 221.693C276.875 221.729 267.271 225.445 262.771 233.869C258.272 242.293 260.475 252.437 260.498 252.538L260.601 253ZM274.521 240.265C270.717 247.388 263.126 251.039 261.203 251.873C260.838 249.792 259.691 241.377 263.492 234.261C267.292 227.146 274.885 223.489 276.809 222.654C277.175 224.736 278.321 233.15 274.521 240.265Z" fill="url(#paint45_linear_15_463)"/>
<path d="M272.246 238.231C264.233 243.071 261.148 252.685 261.148 252.685C261.148 252.685 271.053 254.452 279.065 249.612C287.078 244.771 290.164 235.157 290.164 235.157C290.164 235.157 280.259 233.39 272.246 238.231Z" fill="url(#paint46_linear_15_463)"/>
<path d="M273.437 0.242035H210.973C209.67 0.24355 208.421 0.761719 207.5 1.68288C206.579 2.60404 206.06 3.85298 206.059 5.15569V36.2441C206.06 37.5469 206.579 38.7958 207.5 39.7169C208.421 40.6381 209.67 41.1563 210.973 41.1578H273.437C274.74 41.1567 275.989 40.6386 276.91 39.7174C277.831 38.7961 278.35 37.547 278.351 36.2441V5.15569C278.35 3.85285 277.831 2.60368 276.91 1.68243C275.989 0.761181 274.74 0.243141 273.437 0.242035Z" fill="white"/>
<g filter="url(#filter0_d_15_463)">
<path d="M273.437 41.4H210.974C209.607 41.3985 208.296 40.8548 207.33 39.8883C206.364 38.9219 205.82 37.6115 205.818 36.2447V5.15532C205.82 3.78852 206.364 2.47814 207.33 1.51166C208.296 0.545191 209.607 0.00154605 210.974 0H273.437C274.804 0.00154605 276.114 0.54519 277.081 1.51166C278.047 2.47814 278.591 3.78852 278.592 5.15532V36.2447C278.591 37.6115 278.047 38.9219 277.081 39.8883C276.114 40.8548 274.804 41.3985 273.437 41.4ZM210.974 0.483152C209.735 0.484572 208.547 0.977272 207.672 1.85317C206.796 2.72906 206.303 3.91662 206.302 5.15532V36.2447C206.303 37.4834 206.796 38.6709 207.672 39.5468C208.547 40.4227 209.735 40.9154 210.974 40.9169H273.437C274.676 40.9154 275.863 40.4227 276.739 39.5468C277.615 38.6709 278.108 37.4834 278.109 36.2447V5.15532C278.108 3.91662 277.615 2.72906 276.739 1.85317C275.863 0.977273 274.676 0.484572 273.437 0.483152H210.974Z" fill="url(#paint47_linear_15_463)"/>
</g>
<path d="M235.641 31.3912C235.286 31.3902 234.937 31.2994 234.627 31.1273C234.296 30.9485 234.019 30.6826 233.827 30.3582C233.635 30.0339 233.535 29.6634 233.538 29.2866V11.936C233.538 11.5598 233.639 11.1905 233.831 10.8667C234.023 10.5429 234.298 10.2765 234.627 10.0953C234.957 9.91411 235.329 9.82483 235.705 9.83677C236.081 9.84871 236.447 9.96143 236.765 10.1632L253.224 18.8384C253.522 19.0281 253.768 19.29 253.938 19.5999C254.108 19.9098 254.198 20.2577 254.198 20.6113C254.198 20.9649 254.108 21.3128 253.938 21.6227C253.768 21.9326 253.522 22.1945 253.224 22.3841L236.765 31.0594C236.429 31.275 236.039 31.3901 235.641 31.3912Z" fill="#333333"/>
<path d="M224.408 36.2678C224.053 36.2668 223.704 36.176 223.394 36.0039C223.063 35.825 222.786 35.5591 222.594 35.2348C222.402 34.9104 222.302 34.54 222.305 34.1631V16.8126C222.305 16.4363 222.406 16.067 222.598 15.7432C222.789 15.4194 223.064 15.153 223.394 14.9718C223.724 14.7907 224.096 14.7014 224.472 14.7133C224.848 14.7253 225.214 14.838 225.532 15.0397L241.991 23.715C242.289 23.9046 242.535 24.1665 242.705 24.4764C242.875 24.7863 242.965 25.1342 242.965 25.4878C242.965 25.8414 242.875 26.1893 242.705 26.4992C242.535 26.8092 242.289 27.0711 241.991 27.2607L225.532 35.936C225.196 36.1515 224.806 36.2667 224.408 36.2678Z" fill="url(#paint48_linear_15_463)"/>
<path d="M264.346 0.242035V6.80324C264.346 7.12937 263.776 7.40235 263.008 7.47724C263.002 7.47685 262.995 7.47767 262.989 7.47966C262.861 7.48932 262.725 7.49657 262.588 7.49657C262.164 7.50434 261.743 7.4356 261.344 7.29364C261.307 7.27915 261.271 7.26224 261.235 7.24775C261.201 7.22842 261.165 7.21151 261.131 7.19218C260.94 7.07864 260.829 6.94577 260.829 6.80324V0.242035H264.346Z" fill="url(#paint49_linear_15_463)"/>
<path d="M276.708 46C280.444 46 283.472 42.9716 283.472 39.2358C283.472 35.5 280.444 32.4715 276.708 32.4715C272.972 32.4715 269.944 35.5 269.944 39.2358C269.944 42.9716 272.972 46 276.708 46Z" fill="#3F3D56"/>
<path d="M276.201 41.9392C276.187 41.9392 276.172 41.9387 276.158 41.938C276.031 41.9318 275.906 41.8982 275.793 41.8394C275.68 41.7806 275.581 41.698 275.502 41.5973L274.372 40.144C274.3 40.0523 274.248 39.9474 274.217 39.8353C274.186 39.7232 274.178 39.6062 274.192 39.4908C274.207 39.3755 274.243 39.2641 274.301 39.1631C274.358 39.062 274.435 38.9733 274.527 38.902L274.568 38.8703C274.659 38.7989 274.764 38.7462 274.876 38.7154C274.988 38.6845 275.106 38.676 275.221 38.6905C275.336 38.7049 275.448 38.7419 275.549 38.7994C275.65 38.8569 275.739 38.9337 275.81 39.0255C275.867 39.0988 275.939 39.1589 276.022 39.2018C276.104 39.2446 276.195 39.2691 276.288 39.2736C276.381 39.2781 276.473 39.2626 276.56 39.228C276.646 39.1934 276.723 39.1405 276.787 39.0731L279.083 36.65C279.244 36.4799 279.467 36.3807 279.701 36.3743C279.936 36.368 280.163 36.4549 280.334 36.616L280.372 36.6519C280.456 36.7318 280.524 36.8276 280.571 36.9337C280.619 37.0399 280.645 37.1543 280.648 37.2705C280.651 37.3867 280.631 37.5024 280.589 37.6109C280.548 37.7194 280.485 37.8187 280.405 37.9031L276.843 41.6627C276.761 41.75 276.661 41.8196 276.551 41.8671C276.44 41.9147 276.321 41.9392 276.201 41.9392Z" fill="white"/>
<path d="M145.437 180.242H82.9726C81.6699 180.244 80.421 180.762 79.4998 181.683C78.5787 182.604 78.0605 183.853 78.059 185.156V216.244C78.0605 217.547 78.5787 218.796 79.4998 219.717C80.421 220.638 81.6699 221.156 82.9726 221.158H145.437C146.74 221.157 147.989 220.639 148.91 219.717C149.831 218.796 150.35 217.547 150.351 216.244V185.156C150.35 183.853 149.831 182.604 148.91 181.682C147.989 180.761 146.74 180.243 145.437 180.242Z" fill="white"/>
<g filter="url(#filter1_d_15_463)">
<path d="M145.437 221.4H82.9737C81.6069 221.398 80.2965 220.855 79.33 219.888C78.3635 218.922 77.8199 217.611 77.8184 216.245V185.155C77.8199 183.789 78.3635 182.478 79.33 181.512C80.2965 180.545 81.6069 180.002 82.9737 180H145.437C146.804 180.002 148.114 180.545 149.081 181.512C150.047 182.478 150.591 183.789 150.592 185.155V216.245C150.591 217.611 150.047 218.922 149.081 219.888C148.114 220.855 146.804 221.398 145.437 221.4ZM82.9737 180.483C81.735 180.485 80.5474 180.977 79.6715 181.853C78.7956 182.729 78.3029 183.917 78.3015 185.155V216.245C78.3029 217.483 78.7956 218.671 79.6715 219.547C80.5474 220.423 81.735 220.915 82.9737 220.917H145.437C146.676 220.915 147.863 220.423 148.739 219.547C149.615 218.671 150.108 217.483 150.109 216.245V185.155C150.108 183.917 149.615 182.729 148.739 181.853C147.863 180.977 146.676 180.485 145.437 180.483H82.9737Z" fill="url(#paint50_linear_15_463)"/>
</g>
<path d="M136.346 180.242V186.803C136.346 187.129 135.776 187.402 135.008 187.477C135.002 187.477 134.995 187.478 134.989 187.48C134.861 187.489 134.725 187.497 134.588 187.497C134.164 187.504 133.743 187.436 133.344 187.294C133.307 187.279 133.271 187.262 133.235 187.248C133.201 187.228 133.165 187.212 133.131 187.192C132.94 187.079 132.829 186.946 132.829 186.803V180.242H136.346Z" fill="url(#paint51_linear_15_463)"/>
<path d="M148.708 226C152.444 226 155.472 222.972 155.472 219.236C155.472 215.5 152.444 212.472 148.708 212.472C144.972 212.472 141.944 215.5 141.944 219.236C141.944 222.972 144.972 226 148.708 226Z" fill="#3F3D56"/>
<path d="M148.201 221.939C148.187 221.939 148.172 221.939 148.158 221.938C148.031 221.932 147.906 221.898 147.793 221.839C147.68 221.781 147.581 221.698 147.502 221.597L146.372 220.144C146.3 220.052 146.248 219.947 146.217 219.835C146.186 219.723 146.178 219.606 146.192 219.491C146.207 219.375 146.243 219.264 146.301 219.163C146.358 219.062 146.435 218.973 146.527 218.902L146.568 218.87C146.659 218.799 146.764 218.746 146.876 218.715C146.988 218.684 147.106 218.676 147.221 218.69C147.336 218.705 147.448 218.742 147.549 218.799C147.65 218.857 147.739 218.934 147.81 219.026C147.867 219.099 147.939 219.159 148.022 219.202C148.104 219.245 148.195 219.269 148.288 219.274C148.381 219.278 148.473 219.263 148.56 219.228C148.646 219.193 148.723 219.141 148.787 219.073L151.083 216.65C151.244 216.48 151.467 216.381 151.701 216.374C151.936 216.368 152.163 216.455 152.334 216.616L152.372 216.652C152.456 216.732 152.524 216.828 152.571 216.934C152.619 217.04 152.645 217.154 152.648 217.27C152.651 217.387 152.631 217.502 152.589 217.611C152.548 217.719 152.485 217.819 152.405 217.903L148.843 221.663C148.761 221.75 148.661 221.82 148.551 221.867C148.44 221.915 148.321 221.939 148.201 221.939Z" fill="white"/>
<path d="M145.703 198H83.0736C82.4813 198 82 199.121 82 200.5C82 201.879 82.4813 203 83.0736 203H145.703C146.295 203 146.776 201.879 146.776 200.5C146.776 199.121 146.295 198 145.703 198Z" fill="#3F3D56"/>
<path d="M124.498 198V203H83.0736C82.4813 203 82 201.879 82 200.5C82 199.121 82.4813 198 83.0736 198H124.498Z" fill="url(#paint52_linear_15_463)"/>
<path d="M125.5 205C127.985 205 130 202.985 130 200.5C130 198.015 127.985 196 125.5 196C123.015 196 121 198.015 121 200.5C121 202.985 123.015 205 125.5 205Z" fill="url(#paint53_linear_15_463)"/>
<path d="M87.6 209C87.4409 209 87.2883 209.032 87.1757 209.088C87.0632 209.144 87 209.22 87 209.3V214.7C87 214.78 87.0632 214.856 87.1757 214.912C87.2883 214.968 87.4409 215 87.6 215C87.7591 215 87.9117 214.968 88.0243 214.912C88.1368 214.856 88.2 214.78 88.2 214.7V209.3C88.2 209.22 88.1368 209.144 88.0243 209.088C87.9117 209.032 87.7591 209 87.6 209Z" fill="#E6E6E7"/>
<path d="M112.8 209C112.641 209 112.488 209.032 112.376 209.088C112.263 209.144 112.2 209.22 112.2 209.3V214.7C112.2 214.78 112.263 214.856 112.376 214.912C112.488 214.968 112.641 215 112.8 215C112.959 215 113.112 214.968 113.224 214.912C113.337 214.856 113.4 214.78 113.4 214.7V209.3C113.4 209.22 113.337 209.144 113.224 209.088C113.112 209.032 112.959 209 112.8 209Z" fill="#3F3D56"/>
<path d="M115.2 209C115.041 209 114.888 209.032 114.776 209.088C114.663 209.144 114.6 209.22 114.6 209.3V214.7C114.6 214.78 114.663 214.856 114.776 214.912C114.888 214.968 115.041 215 115.2 215C115.359 215 115.512 214.968 115.624 214.912C115.737 214.856 115.8 214.78 115.8 214.7V209.3C115.8 209.22 115.737 209.144 115.624 209.088C115.512 209.032 115.359 209 115.2 209Z" fill="#3F3D56"/>
<path d="M92.3251 209C92.2065 209 92.09 209.032 91.9875 209.092L88.5276 211.423C88.521 211.427 88.5146 211.431 88.5082 211.435C88.4126 211.495 88.334 211.578 88.2801 211.677C88.2261 211.777 88.1985 211.888 88.2 212.001C88.1993 212.119 88.2302 212.236 88.2895 212.338C88.3488 212.441 88.4344 212.526 88.5375 212.585L91.9703 214.899C92.0725 214.962 92.1898 214.997 92.3099 215C92.43 215.003 92.5488 214.973 92.6537 214.915C92.7587 214.856 92.8462 214.771 92.907 214.667C92.9679 214.564 93 214.446 93 214.326V209.675C92.9995 209.497 92.9283 209.325 92.8019 209.199C92.6755 209.072 92.5041 209.001 92.3251 209ZM92.2958 209.584C92.3084 209.58 92.3218 209.579 92.3349 209.581C92.348 209.583 92.3605 209.587 92.3715 209.595C92.3859 209.603 92.3978 209.614 92.406 209.629C92.4143 209.643 92.4184 209.659 92.4181 209.675V214.326C92.4181 214.342 92.4138 214.358 92.4057 214.372C92.3975 214.387 92.3858 214.398 92.3716 214.407C92.3575 214.415 92.3415 214.419 92.3251 214.419C92.3088 214.419 92.2927 214.415 92.2786 214.407L88.8456 212.092C88.7879 212.058 88.7818 212.021 88.7818 212.001C88.7815 211.984 88.7857 211.968 88.7938 211.954C88.802 211.94 88.8139 211.928 88.8283 211.92L88.8456 211.909L92.2958 209.584Z" fill="#E6E6E7"/>
<path d="M134.637 209C134.491 209 134.348 209.031 134.222 209.09C134.093 209.149 133.986 209.234 133.912 209.336C133.838 209.439 133.799 209.556 133.8 209.674V214.326C133.8 214.444 133.839 214.56 133.913 214.663C133.987 214.765 134.094 214.851 134.222 214.91C134.35 214.969 134.496 215 134.644 215C134.792 215 134.937 214.969 135.066 214.91L139.4 212.573C139.523 212.514 139.626 212.43 139.696 212.329C139.766 212.229 139.802 212.115 139.8 212C139.801 211.883 139.764 211.769 139.692 211.667C139.62 211.566 139.516 211.481 139.391 211.422L135.087 209.101C134.951 209.036 134.796 209.001 134.637 209ZM134.527 209.674C134.527 209.658 134.533 209.642 134.543 209.628C134.553 209.613 134.568 209.602 134.585 209.594C134.603 209.585 134.623 209.581 134.644 209.581C134.664 209.581 134.684 209.585 134.702 209.594L139.009 211.917C139.028 211.925 139.044 211.937 139.055 211.952C139.066 211.966 139.072 211.983 139.073 212V212C139.073 212.016 139.068 212.032 139.058 212.047C139.047 212.061 139.033 212.072 139.015 212.08L134.68 214.417C134.665 214.421 134.648 214.422 134.631 214.42C134.615 214.419 134.599 214.414 134.586 214.406C134.568 214.398 134.553 214.387 134.542 214.373C134.532 214.358 134.527 214.342 134.527 214.326L134.527 209.674Z" fill="#E6E6E7"/>
<path d="M140.4 209C140.241 209 140.088 209.032 139.976 209.088C139.863 209.144 139.8 209.22 139.8 209.3V214.7C139.8 214.78 139.863 214.856 139.976 214.912C140.088 214.968 140.241 215 140.4 215C140.559 215 140.712 214.968 140.824 214.912C140.937 214.856 141 214.78 141 214.7V209.3C141 209.22 140.937 209.144 140.824 209.088C140.712 209.032 140.559 209 140.4 209Z" fill="#E6E6E7"/>
<path d="M259.619 147.242H197.154C195.852 147.244 194.603 147.762 193.681 148.683C192.76 149.604 192.242 150.853 192.241 152.156V183.244C192.242 184.547 192.76 185.796 193.681 186.717C194.603 187.638 195.852 188.156 197.154 188.158H259.619C260.921 188.157 262.171 187.639 263.092 186.717C264.013 185.796 264.531 184.547 264.532 183.244V152.156C264.531 150.853 264.013 149.604 263.092 148.682C262.171 147.761 260.921 147.243 259.619 147.242Z" fill="white"/>
<g filter="url(#filter2_d_15_463)">
<path d="M259.619 188.4H197.155C195.789 188.398 194.478 187.855 193.512 186.888C192.545 185.922 192.002 184.611 192 183.245V152.155C192.002 150.789 192.545 149.478 193.512 148.512C194.478 147.545 195.789 147.002 197.155 147H259.619C260.986 147.002 262.296 147.545 263.262 148.512C264.229 149.478 264.773 150.789 264.774 152.155V183.245C264.773 184.611 264.229 185.922 263.262 186.888C262.296 187.855 260.986 188.398 259.619 188.4ZM197.155 147.483C195.917 147.485 194.729 147.977 193.853 148.853C192.977 149.729 192.485 150.917 192.483 152.155V183.245C192.485 184.483 192.977 185.671 193.853 186.547C194.729 187.423 195.917 187.915 197.155 187.917H259.619C260.857 187.915 262.045 187.423 262.921 186.547C263.797 185.671 264.29 184.483 264.291 183.245V152.155C264.29 150.917 263.797 149.729 262.921 148.853C262.045 147.977 260.857 147.485 259.619 147.483H197.155Z" fill="url(#paint54_linear_15_463)"/>
</g>
<path d="M250.528 147.242V153.803C250.528 154.129 249.958 154.402 249.19 154.477C249.183 154.477 249.177 154.478 249.17 154.48C249.042 154.489 248.907 154.497 248.769 154.497C248.346 154.504 247.924 154.436 247.525 154.294C247.489 154.279 247.453 154.262 247.417 154.248C247.383 154.228 247.347 154.212 247.313 154.192C247.122 154.079 247.011 153.946 247.011 153.803V147.242H250.528Z" fill="url(#paint55_linear_15_463)"/>
<path d="M262.889 193C266.625 193 269.654 189.972 269.654 186.236C269.654 182.5 266.625 179.472 262.889 179.472C259.154 179.472 256.125 182.5 256.125 186.236C256.125 189.972 259.154 193 262.889 193Z" fill="#3F3D56"/>
<path d="M262.383 188.939C262.368 188.939 262.354 188.939 262.34 188.938C262.212 188.932 262.088 188.898 261.974 188.839C261.861 188.781 261.762 188.698 261.684 188.597L260.553 187.144C260.482 187.052 260.429 186.947 260.399 186.835C260.368 186.723 260.359 186.606 260.374 186.491C260.388 186.375 260.425 186.264 260.483 186.163C260.54 186.062 260.617 185.973 260.709 185.902L260.749 185.87C260.841 185.799 260.946 185.746 261.058 185.715C261.17 185.684 261.287 185.676 261.403 185.69C261.518 185.705 261.629 185.742 261.73 185.799C261.831 185.857 261.92 185.934 261.992 186.026C262.049 186.099 262.121 186.159 262.203 186.202C262.286 186.245 262.377 186.269 262.469 186.274C262.562 186.278 262.655 186.263 262.741 186.228C262.827 186.193 262.905 186.141 262.969 186.073L265.264 183.65C265.426 183.48 265.648 183.381 265.883 183.374C266.117 183.368 266.345 183.455 266.516 183.616L266.553 183.652C266.638 183.732 266.705 183.828 266.753 183.934C266.8 184.04 266.826 184.154 266.829 184.27C266.832 184.387 266.813 184.502 266.771 184.611C266.73 184.719 266.667 184.819 266.587 184.903L263.025 188.663C262.942 188.75 262.843 188.82 262.733 188.867C262.622 188.915 262.503 188.939 262.383 188.939Z" fill="white"/>
<path d="M219.5 181C218.848 181 218.302 180.779 217.86 180.338C217.419 179.896 217.198 179.35 217.2 178.7C217.2 178.048 217.421 177.502 217.862 177.06C218.304 176.618 218.85 176.398 219.5 176.4H237.9C238.552 176.4 239.098 176.621 239.54 177.062C239.981 177.504 240.202 178.05 240.2 178.7C240.2 179.352 239.979 179.898 239.538 180.34C239.096 180.781 238.55 181.002 237.9 181H219.5ZM210.3 162.6C209.648 162.6 209.102 162.379 208.66 161.938C208.219 161.496 207.998 160.95 208 160.3C208 159.648 208.221 159.102 208.662 158.66C209.104 158.219 209.65 157.998 210.3 158C210.952 158 211.498 158.221 211.94 158.662C212.382 159.104 212.602 159.65 212.6 160.3C212.6 160.952 212.379 161.498 211.938 161.94C211.496 162.382 210.95 162.602 210.3 162.6ZM219.5 162.6C218.848 162.6 218.302 162.379 217.86 161.938C217.419 161.496 217.198 160.95 217.2 160.3C217.2 159.648 217.421 159.102 217.862 158.66C218.304 158.219 218.85 157.998 219.5 158C220.152 158 220.698 158.221 221.14 158.662C221.581 159.104 221.802 159.65 221.8 160.3C221.8 160.952 221.579 161.498 221.138 161.94C220.696 162.382 220.15 162.602 219.5 162.6ZM228.7 162.6C228.048 162.6 227.502 162.379 227.06 161.938C226.618 161.496 226.398 160.95 226.4 160.3C226.4 159.648 226.621 159.102 227.062 158.66C227.504 158.219 228.05 157.998 228.7 158C229.352 158 229.898 158.221 230.34 158.662C230.781 159.104 231.002 159.65 231 160.3C231 160.952 230.779 161.498 230.338 161.94C229.896 162.382 229.35 162.602 228.7 162.6ZM237.9 162.6C237.248 162.6 236.702 162.379 236.26 161.938C235.818 161.496 235.598 160.95 235.6 160.3C235.6 159.648 235.821 159.102 236.262 158.66C236.704 158.219 237.25 157.998 237.9 158C238.552 158 239.098 158.221 239.54 158.662C239.981 159.104 240.202 159.65 240.2 160.3C240.2 160.952 239.979 161.498 239.538 161.94C239.096 162.382 238.55 162.602 237.9 162.6ZM247.1 162.6C246.448 162.6 245.902 162.379 245.46 161.938C245.018 161.496 244.798 160.95 244.8 160.3C244.8 159.648 245.021 159.102 245.462 158.66C245.904 158.219 246.45 157.998 247.1 158C247.752 158 248.298 158.221 248.74 158.662C249.181 159.104 249.402 159.65 249.4 160.3C249.4 160.952 249.179 161.498 248.738 161.94C248.296 162.382 247.75 162.602 247.1 162.6ZM247.1 171.8C246.448 171.8 245.902 171.579 245.46 171.138C245.018 170.696 244.798 170.15 244.8 169.5C244.8 168.848 245.021 168.302 245.462 167.86C245.904 167.419 246.45 167.198 247.1 167.2C247.752 167.2 248.298 167.421 248.74 167.862C249.181 168.304 249.402 168.85 249.4 169.5C249.4 170.152 249.179 170.698 248.738 171.14C248.296 171.582 247.75 171.802 247.1 171.8ZM237.9 171.8C237.248 171.8 236.702 171.579 236.26 171.138C235.818 170.696 235.598 170.15 235.6 169.5C235.6 168.848 235.821 168.302 236.262 167.86C236.704 167.419 237.25 167.198 237.9 167.2C238.552 167.2 239.098 167.421 239.54 167.862C239.981 168.304 240.202 168.85 240.2 169.5C240.2 170.152 239.979 170.698 239.538 171.14C239.096 171.582 238.55 171.802 237.9 171.8ZM228.7 171.8C228.048 171.8 227.502 171.579 227.06 171.138C226.618 170.696 226.398 170.15 226.4 169.5C226.4 168.848 226.621 168.302 227.062 167.86C227.504 167.419 228.05 167.198 228.7 167.2C229.352 167.2 229.898 167.421 230.34 167.862C230.781 168.304 231.002 168.85 231 169.5C231 170.152 230.779 170.698 230.338 171.14C229.896 171.582 229.35 171.802 228.7 171.8ZM219.5 171.8C218.848 171.8 218.302 171.579 217.86 171.138C217.419 170.696 217.198 170.15 217.2 169.5C217.2 168.848 217.421 168.302 217.862 167.86C218.304 167.419 218.85 167.198 219.5 167.2C220.152 167.2 220.698 167.421 221.14 167.862C221.581 168.304 221.802 168.85 221.8 169.5C221.8 170.152 221.579 170.698 221.138 171.14C220.696 171.582 220.15 171.802 219.5 171.8ZM210.3 171.8C209.648 171.8 209.102 171.579 208.66 171.138C208.219 170.696 207.998 170.15 208 169.5C208 168.848 208.221 168.302 208.662 167.86C209.104 167.419 209.65 167.198 210.3 167.2C210.952 167.2 211.498 167.421 211.94 167.862C212.382 168.304 212.602 168.85 212.6 169.5C212.6 170.152 212.379 170.698 211.938 171.14C211.496 171.582 210.95 171.802 210.3 171.8Z" fill="url(#paint56_linear_15_463)"/>
<path d="M147.5 45C154.956 45 161 38.732 161 31C161 23.268 154.956 17 147.5 17C140.044 17 134 23.268 134 31C134 38.732 140.044 45 147.5 45Z" fill="url(#paint57_linear_15_463)"/>
</g>
<defs>
<filter id="filter0_d_15_463" x="195.818" y="-6" width="92.7742" height="61.4" filterUnits="userSpaceOnUse" color-interpolation-filters="sRGB">
<feFlood flood-opacity="0" result="BackgroundImageFix"/>
<feColorMatrix in="SourceAlpha" type="matrix" values="0 0 0 0 0 0 0 0 0 0 0 0 0 0 0 0 0 0 127 0" result="hardAlpha"/>
<feOffset dy="4"/>
<feGaussianBlur stdDeviation="5"/>
<feComposite in2="hardAlpha" operator="out"/>
<feColorMatrix type="matrix" values="0 0 0 0 0 0 0 0 0 0 0 0 0 0 0 0 0 0 0.25 0"/>
<feBlend mode="normal" in2="BackgroundImageFix" result="effect1_dropShadow_15_463"/>
<feBlend mode="normal" in="SourceGraphic" in2="effect1_dropShadow_15_463" result="shape"/>
</filter>
<filter id="filter1_d_15_463" x="67.8184" y="174" width="92.7742" height="61.4" filterUnits="userSpaceOnUse" color-interpolation-filters="sRGB">
<feFlood flood-opacity="0" result="BackgroundImageFix"/>
<feColorMatrix in="SourceAlpha" type="matrix" values="0 0 0 0 0 0 0 0 0 0 0 0 0 0 0 0 0 0 127 0" result="hardAlpha"/>
<feOffset dy="4"/>
<feGaussianBlur stdDeviation="5"/>
<feComposite in2="hardAlpha" operator="out"/>
<feColorMatrix type="matrix" values="0 0 0 0 0 0 0 0 0 0 0 0 0 0 0 0 0 0 0.25 0"/>
<feBlend mode="normal" in2="BackgroundImageFix" result="effect1_dropShadow_15_463"/>
<feBlend mode="normal" in="SourceGraphic" in2="effect1_dropShadow_15_463" result="shape"/>
</filter>
<filter id="filter2_d_15_463" x="182" y="141" width="92.7742" height="61.4" filterUnits="userSpaceOnUse" color-interpolation-filters="sRGB">
<feFlood flood-opacity="0" result="BackgroundImageFix"/>
<feColorMatrix in="SourceAlpha" type="matrix" values="0 0 0 0 0 0 0 0 0 0 0 0 0 0 0 0 0 0 127 0" result="hardAlpha"/>
<feOffset dy="4"/>
<feGaussianBlur stdDeviation="5"/>
<feComposite in2="hardAlpha" operator="out"/>
<feColorMatrix type="matrix" values="0 0 0 0 0 0 0 0 0 0 0 0 0 0 0 0 0 0 0.25 0"/>
<feBlend mode="normal" in2="BackgroundImageFix" result="effect1_dropShadow_15_463"/>
<feBlend mode="normal" in="SourceGraphic" in2="effect1_dropShadow_15_463" result="shape"/>
</filter>
<linearGradient id="paint0_linear_15_463" x1="147.5" y1="14" x2="147.5" y2="237" gradientUnits="userSpaceOnUse">
<stop stop-color="#4CD5FA"/>
<stop offset="1" stop-color="#51A4F0"/>
</linearGradient>
<linearGradient id="paint1_linear_15_463" x1="36.7435" y1="38.2617" x2="36.7435" y2="126.111" gradientUnits="userSpaceOnUse">
<stop stop-color="#26B5F5"/>
<stop offset="1" stop-color="#3A77CD"/>
</linearGradient>
<linearGradient id="paint2_linear_15_463" x1="69.8668" y1="41.5971" x2="69.8668" y2="124.527" gradientUnits="userSpaceOnUse">
<stop stop-color="#26B5F5"/>
<stop offset="1" stop-color="#3A77CD"/>
</linearGradient>
<linearGradient id="paint3_linear_15_463" x1="76.0678" y1="46.0105" x2="76.0678" y2="120.113" gradientUnits="userSpaceOnUse">
<stop stop-color="#26B5F5"/>
<stop offset="1" stop-color="#3A77CD"/>
</linearGradient>
<linearGradient id="paint4_linear_15_463" x1="115.68" y1="89.5443" x2="115.68" y2="114.634" gradientUnits="userSpaceOnUse">
<stop stop-color="#26B5F5"/>
<stop offset="1" stop-color="#3A77CD"/>
</linearGradient>
<linearGradient id="paint5_linear_15_463" x1="120.427" y1="85.8148" x2="120.427" y2="118.364" gradientUnits="userSpaceOnUse">
<stop stop-color="#26B5F5"/>
<stop offset="1" stop-color="#3A77CD"/>
</linearGradient>
<linearGradient id="paint6_linear_15_463" x1="125.173" y1="83.4415" x2="125.173" y2="120.737" gradientUnits="userSpaceOnUse">
<stop stop-color="#26B5F5"/>
<stop offset="1" stop-color="#3A77CD"/>
</linearGradient>
<linearGradient id="paint7_linear_15_463" x1="129.92" y1="77.3386" x2="129.92" y2="126.84" gradientUnits="userSpaceOnUse">
<stop stop-color="#26B5F5"/>
<stop offset="1" stop-color="#3A77CD"/>
</linearGradient>
<linearGradient id="paint8_linear_15_463" x1="134.667" y1="68.1842" x2="134.667" y2="135.994" gradientUnits="userSpaceOnUse">
<stop stop-color="#26B5F5"/>
<stop offset="1" stop-color="#3A77CD"/>
</linearGradient>
<linearGradient id="paint9_linear_15_463" x1="139.413" y1="77.3386" x2="139.413" y2="126.84" gradientUnits="userSpaceOnUse">
<stop stop-color="#26B5F5"/>
<stop offset="1" stop-color="#3A77CD"/>
</linearGradient>
<linearGradient id="paint10_linear_15_463" x1="144.16" y1="72.9309" x2="144.16" y2="131.247" gradientUnits="userSpaceOnUse">
<stop stop-color="#26B5F5"/>
<stop offset="1" stop-color="#3A77CD"/>
</linearGradient>
<linearGradient id="paint11_linear_15_463" x1="148.907" y1="84.4586" x2="148.907" y2="119.72" gradientUnits="userSpaceOnUse">
<stop stop-color="#26B5F5"/>
<stop offset="1" stop-color="#3A77CD"/>
</linearGradient>
<linearGradient id="paint12_linear_15_463" x1="153.653" y1="81.7462" x2="153.653" y2="122.432" gradientUnits="userSpaceOnUse">
<stop stop-color="#26B5F5"/>
<stop offset="1" stop-color="#3A77CD"/>
</linearGradient>
<linearGradient id="paint13_linear_15_463" x1="158.4" y1="89.5443" x2="158.4" y2="114.634" gradientUnits="userSpaceOnUse">
<stop stop-color="#26B5F5"/>
<stop offset="1" stop-color="#3A77CD"/>
</linearGradient>
<linearGradient id="paint14_linear_15_463" x1="162.469" y1="89.5443" x2="162.469" y2="114.634" gradientUnits="userSpaceOnUse">
<stop stop-color="#26B5F5"/>
<stop offset="1" stop-color="#3A77CD"/>
</linearGradient>
<linearGradient id="paint15_linear_15_463" x1="167.215" y1="85.8148" x2="167.215" y2="118.364" gradientUnits="userSpaceOnUse">
<stop stop-color="#26B5F5"/>
<stop offset="1" stop-color="#3A77CD"/>
</linearGradient>
<linearGradient id="paint16_linear_15_463" x1="171.962" y1="83.4415" x2="171.962" y2="120.737" gradientUnits="userSpaceOnUse">
<stop stop-color="#26B5F5"/>
<stop offset="1" stop-color="#3A77CD"/>
</linearGradient>
<linearGradient id="paint17_linear_15_463" x1="176.709" y1="77.3386" x2="176.709" y2="126.84" gradientUnits="userSpaceOnUse">
<stop stop-color="#26B5F5"/>
<stop offset="1" stop-color="#3A77CD"/>
</linearGradient>
<linearGradient id="paint18_linear_15_463" x1="181.455" y1="57.3346" x2="181.455" y2="146.844" gradientUnits="userSpaceOnUse">
<stop stop-color="#26B5F5"/>
<stop offset="1" stop-color="#3A77CD"/>
</linearGradient>
<linearGradient id="paint19_linear_15_463" x1="186.202" y1="77.3386" x2="186.202" y2="126.84" gradientUnits="userSpaceOnUse">
<stop stop-color="#26B5F5"/>
<stop offset="1" stop-color="#3A77CD"/>
</linearGradient>
<linearGradient id="paint20_linear_15_463" x1="190.949" y1="72.9309" x2="190.949" y2="131.247" gradientUnits="userSpaceOnUse">
<stop stop-color="#26B5F5"/>
<stop offset="1" stop-color="#3A77CD"/>
</linearGradient>
<linearGradient id="paint21_linear_15_463" x1="195.695" y1="84.4586" x2="195.695" y2="119.72" gradientUnits="userSpaceOnUse">
<stop stop-color="#26B5F5"/>
<stop offset="1" stop-color="#3A77CD"/>
</linearGradient>
<linearGradient id="paint22_linear_15_463" x1="200.442" y1="81.7462" x2="200.442" y2="122.432" gradientUnits="userSpaceOnUse">
<stop stop-color="#26B5F5"/>
<stop offset="1" stop-color="#3A77CD"/>
</linearGradient>
<linearGradient id="paint23_linear_15_463" x1="205.189" y1="89.5443" x2="205.189" y2="114.634" gradientUnits="userSpaceOnUse">
<stop stop-color="#26B5F5"/>
<stop offset="1" stop-color="#3A77CD"/>
</linearGradient>
<linearGradient id="paint24_linear_15_463" x1="209.257" y1="89.5443" x2="209.257" y2="114.634" gradientUnits="userSpaceOnUse">
<stop stop-color="#26B5F5"/>
<stop offset="1" stop-color="#3A77CD"/>
</linearGradient>
<linearGradient id="paint25_linear_15_463" x1="214.004" y1="85.8148" x2="214.004" y2="118.364" gradientUnits="userSpaceOnUse">
<stop stop-color="#26B5F5"/>
<stop offset="1" stop-color="#3A77CD"/>
</linearGradient>
<linearGradient id="paint26_linear_15_463" x1="218.751" y1="83.4415" x2="218.751" y2="120.737" gradientUnits="userSpaceOnUse">
<stop stop-color="#26B5F5"/>
<stop offset="1" stop-color="#3A77CD"/>
</linearGradient>
<linearGradient id="paint27_linear_15_463" x1="223.498" y1="77.3386" x2="223.498" y2="126.84" gradientUnits="userSpaceOnUse">
<stop stop-color="#26B5F5"/>
<stop offset="1" stop-color="#3A77CD"/>
</linearGradient>
<linearGradient id="paint28_linear_15_463" x1="228.244" y1="68.1842" x2="228.244" y2="135.994" gradientUnits="userSpaceOnUse">
<stop stop-color="#26B5F5"/>
<stop offset="1" stop-color="#3A77CD"/>
</linearGradient>
<linearGradient id="paint29_linear_15_463" x1="232.991" y1="77.3386" x2="232.991" y2="126.84" gradientUnits="userSpaceOnUse">
<stop stop-color="#26B5F5"/>
<stop offset="1" stop-color="#3A77CD"/>
</linearGradient>
<linearGradient id="paint30_linear_15_463" x1="237.738" y1="72.9309" x2="237.738" y2="131.247" gradientUnits="userSpaceOnUse">
<stop stop-color="#26B5F5"/>
<stop offset="1" stop-color="#3A77CD"/>
</linearGradient>
<linearGradient id="paint31_linear_15_463" x1="242.484" y1="84.4586" x2="242.484" y2="119.72" gradientUnits="userSpaceOnUse">
<stop stop-color="#26B5F5"/>
<stop offset="1" stop-color="#3A77CD"/>
</linearGradient>
<linearGradient id="paint32_linear_15_463" x1="247.231" y1="81.7462" x2="247.231" y2="122.432" gradientUnits="userSpaceOnUse">
<stop stop-color="#26B5F5"/>
<stop offset="1" stop-color="#3A77CD"/>
</linearGradient>
<linearGradient id="paint33_linear_15_463" x1="251.978" y1="89.5443" x2="251.978" y2="114.634" gradientUnits="userSpaceOnUse">
<stop stop-color="#26B5F5"/>
<stop offset="1" stop-color="#3A77CD"/>
</linearGradient>
<linearGradient id="paint34_linear_15_463" x1="256.046" y1="89.5443" x2="256.046" y2="114.634" gradientUnits="userSpaceOnUse">
<stop stop-color="#26B5F5"/>
<stop offset="1" stop-color="#3A77CD"/>
</linearGradient>
<linearGradient id="paint35_linear_15_463" x1="260.793" y1="85.8148" x2="260.793" y2="118.364" gradientUnits="userSpaceOnUse">
<stop stop-color="#26B5F5"/>
<stop offset="1" stop-color="#3A77CD"/>
</linearGradient>
<linearGradient id="paint36_linear_15_463" x1="265.54" y1="83.4415" x2="265.54" y2="120.737" gradientUnits="userSpaceOnUse">
<stop stop-color="#26B5F5"/>
<stop offset="1" stop-color="#3A77CD"/>
</linearGradient>
<linearGradient id="paint37_linear_15_463" x1="270.286" y1="77.3386" x2="270.286" y2="126.84" gradientUnits="userSpaceOnUse">
<stop stop-color="#26B5F5"/>
<stop offset="1" stop-color="#3A77CD"/>
</linearGradient>
<linearGradient id="paint38_linear_15_463" x1="275.033" y1="57.3346" x2="275.033" y2="146.844" gradientUnits="userSpaceOnUse">
<stop stop-color="#26B5F5"/>
<stop offset="1" stop-color="#3A77CD"/>
</linearGradient>
<linearGradient id="paint39_linear_15_463" x1="279.78" y1="77.3386" x2="279.78" y2="126.84" gradientUnits="userSpaceOnUse">
<stop stop-color="#26B5F5"/>
<stop offset="1" stop-color="#3A77CD"/>
</linearGradient>
<linearGradient id="paint40_linear_15_463" x1="284.526" y1="72.9309" x2="284.526" y2="131.247" gradientUnits="userSpaceOnUse">
<stop stop-color="#26B5F5"/>
<stop offset="1" stop-color="#3A77CD"/>
</linearGradient>
<linearGradient id="paint41_linear_15_463" x1="289.273" y1="84.4586" x2="289.273" y2="119.72" gradientUnits="userSpaceOnUse">
<stop stop-color="#26B5F5"/>
<stop offset="1" stop-color="#3A77CD"/>
</linearGradient>
<linearGradient id="paint42_linear_15_463" x1="294.02" y1="81.7462" x2="294.02" y2="122.432" gradientUnits="userSpaceOnUse">
<stop stop-color="#26B5F5"/>
<stop offset="1" stop-color="#3A77CD"/>
</linearGradient>
<linearGradient id="paint43_linear_15_463" x1="85.1046" y1="58.5895" x2="85.1046" y2="127.492" gradientUnits="userSpaceOnUse">
<stop stop-color="#4CD5FA"/>
<stop offset="1" stop-color="#51A4F0"/>
</linearGradient>
<linearGradient id="paint44_linear_15_463" x1="25.1619" y1="46.0105" x2="25.1619" y2="101.689" gradientUnits="userSpaceOnUse">
<stop stop-color="#26B5F5"/>
<stop offset="1" stop-color="#3A77CD"/>
</linearGradient>
<linearGradient id="paint45_linear_15_463" x1="269.006" y1="221.526" x2="269.006" y2="253" gradientUnits="userSpaceOnUse">
<stop stop-color="#26B5F5"/>
<stop offset="1" stop-color="#3A77CD"/>
</linearGradient>
<linearGradient id="paint46_linear_15_463" x1="275.656" y1="234.842" x2="275.656" y2="253" gradientUnits="userSpaceOnUse">
<stop stop-color="#26B5F5"/>
<stop offset="1" stop-color="#3A77CD"/>
</linearGradient>
<linearGradient id="paint47_linear_15_463" x1="242.205" y1="0" x2="242.205" y2="41.4" gradientUnits="userSpaceOnUse">
<stop stop-color="#26B5F5"/>
<stop offset="1" stop-color="#3A77CD"/>
</linearGradient>
<linearGradient id="paint48_linear_15_463" x1="232.635" y1="14.7123" x2="232.635" y2="36.2678" gradientUnits="userSpaceOnUse">
<stop stop-color="#4CD5FA"/>
<stop offset="1" stop-color="#51A4F0"/>
</linearGradient>
<linearGradient id="paint49_linear_15_463" x1="262.588" y1="0.242035" x2="262.588" y2="7.49716" gradientUnits="userSpaceOnUse">
<stop stop-color="#26B5F5"/>
<stop offset="1" stop-color="#3A77CD"/>
</linearGradient>
<linearGradient id="paint50_linear_15_463" x1="114.205" y1="180" x2="114.205" y2="221.4" gradientUnits="userSpaceOnUse">
<stop stop-color="#26B5F5"/>
<stop offset="1" stop-color="#3A77CD"/>
</linearGradient>
<linearGradient id="paint51_linear_15_463" x1="134.588" y1="180.242" x2="134.588" y2="187.497" gradientUnits="userSpaceOnUse">
<stop stop-color="#26B5F5"/>
<stop offset="1" stop-color="#3A77CD"/>
</linearGradient>
<linearGradient id="paint52_linear_15_463" x1="103.249" y1="198" x2="103.249" y2="203" gradientUnits="userSpaceOnUse">
<stop stop-color="#4CD5FA"/>
<stop offset="1" stop-color="#51A4F0"/>
</linearGradient>
<linearGradient id="paint53_linear_15_463" x1="125.5" y1="196" x2="125.5" y2="205" gradientUnits="userSpaceOnUse">
<stop stop-color="#26B5F5"/>
<stop offset="1" stop-color="#3A77CD"/>
</linearGradient>
<linearGradient id="paint54_linear_15_463" x1="228.387" y1="147" x2="228.387" y2="188.4" gradientUnits="userSpaceOnUse">
<stop stop-color="#26B5F5"/>
<stop offset="1" stop-color="#3A77CD"/>
</linearGradient>
<linearGradient id="paint55_linear_15_463" x1="248.769" y1="147.242" x2="248.769" y2="154.497" gradientUnits="userSpaceOnUse">
<stop stop-color="#26B5F5"/>
<stop offset="1" stop-color="#3A77CD"/>
</linearGradient>
<linearGradient id="paint56_linear_15_463" x1="228.7" y1="158" x2="228.7" y2="181" gradientUnits="userSpaceOnUse">
<stop stop-color="#4CD5FA"/>
<stop offset="1" stop-color="#51A4F0"/>
</linearGradient>
<linearGradient id="paint57_linear_15_463" x1="147.5" y1="17" x2="147.5" y2="45" gradientUnits="userSpaceOnUse">
<stop stop-color="#26B5F5"/>
<stop offset="1" stop-color="#3A77CD"/>
</linearGradient>
<clipPath id="clip0_15_463">
<rect width="295" height="253" fill="white"/>
</clipPath>
<clipPath id="clip1_15_463">
<rect width="44.3203" height="44.36" fill="white" transform="matrix(0.845908 0.533329 -0.531752 0.8469 78.1981 62.1404)"/>
</clipPath>
</defs>
</svg>
